<?xml version="1.0" encoding="UTF-8" standalone="no"?>
<!DOCTYPE svg PUBLIC "-//W3C//DTD SVG 1.1//EN" "http://www.w3.org/Graphics/SVG/1.1/DTD/svg11.dtd">
<svg width="100%" height="100%" viewBox="0 0 1701 375" version="1.1" xmlns="http://www.w3.org/2000/svg" xmlns:xlink="http://www.w3.org/1999/xlink" xml:space="preserve" xmlns:serif="http://www.serif.com/" style="fill-rule:evenodd;clip-rule:evenodd;stroke-linejoin:round;stroke-miterlimit:2;">
    <g transform="matrix(1,0,0,1,-84.7748,-352.5)">
        <g transform="matrix(0.563063,0,0,0.563063,84.2117,314.212)">
            <g>
                <g transform="matrix(1,0,0,1,-239,21)">
                    <path d="M573.333,47L706.667,47C890.762,47 1040,196.089 1040,380L1040,479.9C1040,608.638 935.533,713 806.667,713L473.333,713C344.467,713 240,608.638 240,479.9L240,380C240,196.089 389.238,47 573.333,47Z" style="fill:url(#_Radial1);"/>
                </g>
                <g transform="matrix(1,0,0,1,-239,21)">
                    <path d="M592.833,164L687.167,164C817.414,164 923,269.661 923,400L923,470.8C923,562.037 849.09,636 757.917,636L522.083,636C430.91,636 357,562.037 357,470.8L357,400C357,269.661 462.586,164 592.833,164Z" style="fill:rgb(82,58,55);"/>
                </g>
            </g>
            <g>
                <g transform="matrix(1,0,0,1,-239,21)">
                    <path d="M257,284.5C257,278.149 262.149,273 268.5,273C274.851,273 280,278.149 280,284.5L280,475.5C280,481.851 274.851,487 268.5,487C262.149,487 257,481.851 257,475.5L257,284.5Z" style="fill:rgb(215,195,95);"/>
                </g>
                <g transform="matrix(1,0,0,1,-239,21)">
                    <path d="M292,294.5C292,288.149 297.149,283 303.5,283C309.851,283 315,288.149 315,294.5L315,465.5C315,471.851 309.851,477 303.5,477C297.149,477 292,471.851 292,465.5L292,294.5Z" style="fill:rgb(215,195,95);"/>
                </g>
                <g transform="matrix(1,0,0,1,-239,21)">
                    <path d="M327,319C327,312.373 332.373,307 339,307C345.627,307 351,312.373 351,319L351,441C351,447.627 345.627,453 339,453C332.373,453 327,447.627 327,441L327,319Z" style="fill:rgb(215,195,95);"/>
                </g>
                <g transform="matrix(1,0,0,1,-239,21)">
                    <path d="M363,284.5C363,278.149 368.149,273 374.5,273C380.851,273 386,278.149 386,284.5L386,475.5C386,481.851 380.851,487 374.5,487C368.149,487 363,481.851 363,475.5L363,284.5Z" style="fill:rgb(215,195,95);"/>
                </g>
                <g transform="matrix(1,0,0,1,-239,21)">
                    <path d="M398,295C398,288.373 403.373,283 410,283C416.628,283 422,288.373 422,295L422,465C422,471.628 416.627,477 410,477C403.373,477 398,471.627 398,465L398,295Z" style="fill:rgb(215,195,95);"/>
                </g>
                <g transform="matrix(1,0,0,1,-239,21)">
                    <path d="M434,235.5C434,229.149 439.149,224 445.5,224C451.852,224 457,229.149 457,235.5L457,524.5C457,530.852 451.851,536 445.5,536C439.149,536 434,530.851 434,524.5L434,235.5Z" style="fill:rgb(215,195,95);"/>
                </g>
                <g transform="matrix(1,0,0,1,-239,21)">
                    <path d="M469,284.5C469,278.149 474.149,273 480.5,273C486.851,273 492,278.149 492,284.5L492,475.5C492,481.851 486.851,487 480.5,487C474.149,487 469,481.851 469,475.5L469,284.5Z" style="fill:rgb(215,195,95);"/>
                </g>
                <g transform="matrix(1,0,0,1,-239,21)">
                    <path d="M504,304C504,297.373 509.373,292 516,292C522.627,292 528,297.373 528,304L528,456C528,462.627 522.627,468 516,468C509.373,468 504,462.627 504,456L504,304Z" style="fill:rgb(215,195,95);"/>
                </g>
                <g transform="matrix(1,0,0,1,-239,21)">
                    <path d="M540,360.5C540,354.149 545.149,349 551.5,349C557.851,349 563,354.149 563,360.5L563,399.5C563,405.851 557.851,411 551.5,411C545.149,411 540,405.851 540,399.5L540,360.5Z" style="fill:rgb(215,195,95);"/>
                </g>
                <g transform="matrix(1,0,0,1,-239,21)">
                    <path d="M575,263C575,256.373 580.373,251 587,251C593.627,251 599,256.373 599,263L599,497C599,503.627 593.627,509 587,509C580.373,509 575,503.627 575,497L575,263Z" style="fill:rgb(215,195,95);"/>
                </g>
                <g transform="matrix(1,0,0,1,-239,21)">
                    <path d="M611,331.5C611,325.149 616.149,320 622.5,320C628.851,320 634,325.149 634,331.5L634,428.5C634,434.851 628.851,440 622.5,440C616.149,440 611,434.851 611,428.5L611,331.5Z" style="fill:rgb(215,195,95);"/>
                </g>
                <g transform="matrix(1,0,0,1,-239,21)">
                    <path d="M646,274.5C646,268.149 651.149,263 657.5,263C663.851,263 669,268.149 669,274.5L669,485.5C669,491.851 663.851,497 657.5,497C651.149,497 646,491.851 646,485.5L646,274.5Z" style="fill:rgb(215,195,95);"/>
                </g>
                <g transform="matrix(1,0,0,1,-239,21)">
                    <path d="M681,250C681,243.373 686.373,238 693,238C699.628,238 705,243.373 705,250L705,510C705,516.628 699.627,522 693,522C686.373,522 681,516.627 681,510L681,250Z" style="fill:rgb(215,195,95);"/>
                </g>
                <g transform="matrix(1,0,0,1,-239,21)">
                    <path d="M717,303.5C717,297.149 722.149,292 728.5,292C734.851,292 740,297.149 740,303.5L740,456.5C740,462.851 734.851,468 728.5,468C722.149,468 717,462.851 717,456.5L717,303.5Z" style="fill:rgb(215,195,95);"/>
                </g>
                <g transform="matrix(1,0,0,1,-239,21)">
                    <path d="M752,285C752,278.373 757.373,273 764,273C770.628,273 776,278.373 776,285L776,475C776,481.628 770.627,487 764,487C757.373,487 752,481.627 752,475L752,285Z" style="fill:rgb(215,195,95);"/>
                </g>
                <g transform="matrix(1,0,0,1,-239,21)">
                    <path d="M788,219.5C788,213.149 793.149,208 799.5,208C805.852,208 811,213.149 811,219.5L811,540.5C811,546.852 805.851,552 799.5,552C793.149,552 788,546.851 788,540.5L788,219.5Z" style="fill:rgb(215,195,95);"/>
                </g>
                <g transform="matrix(1,0,0,1,-239,21)">
                    <path d="M823,318.5C823,312.149 828.149,307 834.5,307C840.851,307 846,312.149 846,318.5L846,441.5C846,447.851 840.851,453 834.5,453C828.149,453 823,447.851 823,441.5L823,318.5Z" style="fill:rgb(215,195,95);"/>
                </g>
                <g transform="matrix(1,0,0,1,-239,21)">
                    <path d="M858,295C858,288.373 863.373,283 870,283C876.628,283 882,288.373 882,295L882,465C882,471.628 876.627,477 870,477C863.373,477 858,471.627 858,465L858,295Z" style="fill:rgb(215,195,95);"/>
                </g>
                <g transform="matrix(1,0,0,1,-239,21)">
                    <path d="M894,249.5C894,243.149 899.149,238 905.5,238C911.852,238 917,243.149 917,249.5L917,510.5C917,516.852 911.851,522 905.5,522C899.149,522 894,516.851 894,510.5L894,249.5Z" style="fill:rgb(215,195,95);"/>
                </g>
                <g transform="matrix(1,0,0,1,-239,21)">
                    <path d="M929,319C929,312.373 934.373,307 941,307C947.627,307 953,312.373 953,319L953,441C953,447.627 947.627,453 941,453C934.373,453 929,447.627 929,441L929,319Z" style="fill:rgb(215,195,95);"/>
                </g>
                <g transform="matrix(1,0,0,1,-239,21)">
                    <path d="M965,274.5C965,268.149 970.149,263 976.5,263C982.851,263 988,268.149 988,274.5L988,485.5C988,491.851 982.851,497 976.5,497C970.149,497 965,491.851 965,485.5L965,274.5Z" style="fill:rgb(215,195,95);"/>
                </g>
                <g transform="matrix(1,0,0,1,-239,21)">
                    <path d="M1000,294.5C1000,288.149 1005.15,283 1011.5,283C1017.85,283 1023,288.149 1023,294.5L1023,465.5C1023,471.851 1017.85,477 1011.5,477C1005.15,477 1000,471.851 1000,465.5L1000,294.5Z" style="fill:rgb(215,195,95);"/>
                </g>
            </g>
        </g>
        <g transform="matrix(7.89545,0,0,7.89545,-3307.65,-3175.53)">
            <path d="M505.287,463.163C505.479,463.531 505.471,463.907 505.263,464.291L500.775,471.587C500.711,471.667 500.679,471.803 500.679,471.995L500.679,477.731C500.679,478.035 500.571,478.295 500.355,478.511C500.139,478.727 499.879,478.835 499.575,478.835L498.903,478.835C498.599,478.835 498.339,478.727 498.123,478.511C497.907,478.295 497.799,478.035 497.799,477.731L497.799,471.971C497.799,471.795 497.759,471.667 497.679,471.587L493.215,464.291C493.007,463.891 492.999,463.523 493.191,463.187C493.399,462.803 493.719,462.611 494.151,462.611L494.919,462.611C495.351,462.611 495.671,462.787 495.879,463.139C496.055,463.411 496.319,463.843 496.671,464.435C497.023,465.027 497.415,465.671 497.847,466.367C498.279,467.063 498.687,467.723 499.071,468.347C499.103,468.411 499.155,468.443 499.227,468.443C499.299,468.443 499.359,468.411 499.407,468.347C499.839,467.643 500.263,466.951 500.679,466.271C501.095,465.591 501.475,464.975 501.819,464.423C502.163,463.871 502.423,463.443 502.599,463.139C502.807,462.787 503.119,462.611 503.535,462.611L504.303,462.611C504.751,462.611 505.079,462.795 505.287,463.163Z" style="fill:rgb(68,84,106);fill-rule:nonzero;"/>
            <path d="M514.599,476.147C514.599,476.899 514.339,477.535 513.819,478.055C513.299,478.575 512.671,478.835 511.935,478.835L508.599,478.835C507.863,478.835 507.231,478.575 506.703,478.055C506.175,477.535 505.911,476.899 505.911,476.147L505.911,467.531C505.911,467.211 506.019,466.943 506.235,466.727C506.451,466.511 506.711,466.403 507.015,466.403L507.687,466.403C507.991,466.403 508.247,466.511 508.455,466.727C508.663,466.943 508.767,467.211 508.767,467.531L508.767,475.691C508.767,475.771 508.803,475.843 508.875,475.907C508.947,475.971 509.023,476.003 509.103,476.003L511.431,476.003C511.511,476.003 511.587,475.971 511.659,475.907C511.731,475.843 511.767,475.771 511.767,475.691L511.767,467.531C511.767,467.211 511.871,466.943 512.079,466.727C512.287,466.511 512.543,466.403 512.847,466.403L513.519,466.403C513.823,466.403 514.079,466.511 514.287,466.727C514.495,466.943 514.599,467.211 514.599,467.531L514.599,476.147Z" style="fill:rgb(68,84,106);fill-rule:nonzero;"/>
            <path d="M524.415,478.163C524.239,478.611 523.911,478.835 523.431,478.835L522.543,478.835C522.223,478.835 521.943,478.715 521.703,478.475L518.895,475.379C518.879,475.347 518.843,475.339 518.787,475.355C518.731,475.371 518.703,475.411 518.703,475.475L518.703,477.731C518.703,478.035 518.595,478.295 518.379,478.511C518.163,478.727 517.903,478.835 517.599,478.835L516.927,478.835C516.623,478.835 516.363,478.727 516.147,478.511C515.931,478.295 515.823,478.035 515.823,477.731L515.823,463.715C515.823,463.395 515.931,463.131 516.147,462.923C516.363,462.715 516.623,462.611 516.927,462.611L517.599,462.611C517.903,462.611 518.163,462.715 518.379,462.923C518.595,463.131 518.703,463.395 518.703,463.715L518.703,469.787C518.703,469.835 518.731,469.871 518.787,469.895C518.843,469.919 518.879,469.907 518.895,469.859L521.439,467.099C521.647,466.859 521.911,466.739 522.231,466.739L523.119,466.739C523.583,466.739 523.919,466.963 524.127,467.411C524.207,467.603 524.231,467.807 524.199,468.023C524.167,468.239 524.079,468.419 523.935,468.563L520.455,472.403C520.391,472.467 520.359,472.543 520.359,472.631C520.359,472.719 520.391,472.787 520.455,472.835L524.223,476.987C524.367,477.147 524.459,477.335 524.499,477.551C524.539,477.767 524.511,477.971 524.415,478.163Z" style="fill:rgb(68,84,106);fill-rule:nonzero;"/>
            <path d="M534.327,478.163C534.151,478.611 533.823,478.835 533.343,478.835L532.455,478.835C532.135,478.835 531.855,478.715 531.615,478.475L528.807,475.379C528.791,475.347 528.755,475.339 528.699,475.355C528.643,475.371 528.615,475.411 528.615,475.475L528.615,477.731C528.615,478.035 528.507,478.295 528.291,478.511C528.075,478.727 527.815,478.835 527.511,478.835L526.839,478.835C526.535,478.835 526.275,478.727 526.059,478.511C525.843,478.295 525.735,478.035 525.735,477.731L525.735,463.715C525.735,463.395 525.843,463.131 526.059,462.923C526.275,462.715 526.535,462.611 526.839,462.611L527.511,462.611C527.815,462.611 528.075,462.715 528.291,462.923C528.507,463.131 528.615,463.395 528.615,463.715L528.615,469.787C528.615,469.835 528.643,469.871 528.699,469.895C528.755,469.919 528.791,469.907 528.807,469.859L531.351,467.099C531.559,466.859 531.823,466.739 532.143,466.739L533.031,466.739C533.495,466.739 533.831,466.963 534.039,467.411C534.119,467.603 534.143,467.807 534.111,468.023C534.079,468.239 533.991,468.419 533.847,468.563L530.367,472.403C530.303,472.467 530.271,472.543 530.271,472.631C530.271,472.719 530.303,472.787 530.367,472.835L534.135,476.987C534.279,477.147 534.371,477.335 534.411,477.551C534.451,477.767 534.423,477.971 534.327,478.163Z" style="fill:rgb(68,84,106);fill-rule:nonzero;"/>
            <path d="M544.095,476.147C544.095,476.899 543.835,477.535 543.315,478.055C542.795,478.575 542.167,478.835 541.431,478.835L538.095,478.835C537.359,478.835 536.727,478.575 536.199,478.055C535.671,477.535 535.407,476.899 535.407,476.147L535.407,467.531C535.407,467.211 535.515,466.943 535.731,466.727C535.947,466.511 536.207,466.403 536.511,466.403L537.183,466.403C537.487,466.403 537.743,466.511 537.951,466.727C538.159,466.943 538.263,467.211 538.263,467.531L538.263,475.691C538.263,475.771 538.299,475.843 538.371,475.907C538.443,475.971 538.519,476.003 538.599,476.003L540.927,476.003C541.007,476.003 541.083,475.971 541.155,475.907C541.227,475.843 541.263,475.771 541.263,475.691L541.263,467.531C541.263,467.211 541.367,466.943 541.575,466.727C541.783,466.511 542.039,466.403 542.343,466.403L543.015,466.403C543.319,466.403 543.575,466.511 543.783,466.727C543.991,466.943 544.095,467.211 544.095,467.531L544.095,476.147Z" style="fill:rgb(68,84,106);fill-rule:nonzero;"/>
            <path d="M552.447,468.179C552.447,468.483 552.343,468.739 552.135,468.947C551.927,469.155 551.671,469.259 551.367,469.259L548.511,469.259C548.303,469.259 548.199,469.371 548.199,469.595L548.199,477.731C548.199,478.035 548.091,478.295 547.875,478.511C547.659,478.727 547.399,478.835 547.095,478.835L546.423,478.835C546.119,478.835 545.863,478.727 545.655,478.511C545.447,478.295 545.343,478.035 545.343,477.731L545.343,469.091C545.343,468.595 545.463,468.143 545.703,467.735C545.943,467.327 546.263,467.003 546.663,466.763C547.063,466.523 547.511,466.403 548.007,466.403L551.367,466.403C551.671,466.403 551.927,466.511 552.135,466.727C552.343,466.943 552.447,467.211 552.447,467.531L552.447,468.179Z" style="fill:rgb(68,84,106);fill-rule:nonzero;"/>
            <path d="M557.295,464.147C557.295,464.643 557.115,465.071 556.755,465.431C556.395,465.791 555.975,465.971 555.495,465.971C554.999,465.971 554.571,465.791 554.211,465.431C553.851,465.071 553.671,464.643 553.671,464.147C553.671,463.667 553.851,463.247 554.211,462.887C554.571,462.527 554.999,462.347 555.495,462.347C555.975,462.347 556.395,462.527 556.755,462.887C557.115,463.247 557.295,463.667 557.295,464.147ZM556.911,477.731C556.911,478.035 556.803,478.295 556.587,478.511C556.371,478.727 556.111,478.835 555.807,478.835L555.159,478.835C554.855,478.835 554.595,478.727 554.379,478.511C554.163,478.295 554.055,478.035 554.055,477.731L554.055,467.771C554.055,467.467 554.163,467.207 554.379,466.991C554.595,466.775 554.855,466.667 555.159,466.667L555.807,466.667C556.111,466.667 556.371,466.775 556.587,466.991C556.803,467.207 556.911,467.467 556.911,467.771L556.911,477.731Z" style="fill:rgb(68,84,106);fill-rule:nonzero;"/>
            <path d="M579.183,463.955L575.991,477.971C575.927,478.227 575.795,478.435 575.595,478.595C575.395,478.755 575.167,478.835 574.911,478.835L574.047,478.835C573.807,478.835 573.591,478.763 573.399,478.619C573.207,478.475 573.071,478.291 572.991,478.067L572.895,477.755C572.687,477.099 572.451,476.339 572.187,475.475C571.923,474.611 571.647,473.707 571.359,472.763C571.343,472.699 571.307,472.667 571.251,472.667C571.195,472.667 571.159,472.699 571.143,472.763C570.919,473.467 570.703,474.167 570.495,474.863C570.287,475.559 570.099,476.187 569.931,476.747C569.763,477.307 569.623,477.747 569.511,478.067C569.447,478.275 569.315,478.455 569.115,478.607C568.915,478.759 568.695,478.835 568.455,478.835L567.567,478.835C567.311,478.835 567.083,478.755 566.883,478.595C566.683,478.435 566.559,478.227 566.511,477.971L563.319,463.955C563.255,463.635 563.319,463.323 563.511,463.019C563.639,462.891 563.775,462.791 563.919,462.719C564.063,462.647 564.223,462.611 564.399,462.611L565.071,462.611C565.327,462.611 565.555,462.691 565.755,462.851C565.955,463.011 566.087,463.211 566.151,463.451L568.095,472.139C568.111,472.187 568.151,472.211 568.215,472.211C568.279,472.211 568.327,472.187 568.359,472.139C568.359,472.139 568.411,471.963 568.515,471.611C568.619,471.259 568.759,470.791 568.935,470.207C569.111,469.623 569.311,468.971 569.535,468.251C569.759,467.531 569.983,466.803 570.207,466.067C570.287,465.843 570.415,465.655 570.591,465.503C570.767,465.351 570.983,465.275 571.239,465.275C571.511,465.275 571.739,465.351 571.923,465.503C572.107,465.655 572.231,465.851 572.295,466.091L574.143,472.139C574.175,472.187 574.223,472.211 574.287,472.211C574.351,472.211 574.391,472.187 574.407,472.139C574.615,471.195 574.823,470.259 575.031,469.331C575.239,468.403 575.435,467.539 575.619,466.739C575.803,465.939 575.959,465.251 576.087,464.675C576.215,464.099 576.303,463.691 576.351,463.451C576.415,463.211 576.547,463.011 576.747,462.851C576.947,462.691 577.175,462.611 577.431,462.611L578.103,462.611C578.279,462.611 578.439,462.647 578.583,462.719C578.727,462.791 578.855,462.891 578.967,463.019C579.191,463.307 579.263,463.619 579.183,463.955Z" style="fill:rgb(68,84,106);fill-rule:nonzero;"/>
            <path d="M588.375,471.707C588.375,472.187 588.255,472.631 588.015,473.039C587.775,473.447 587.455,473.775 587.055,474.023C586.655,474.271 586.207,474.395 585.711,474.395L582.879,474.395C582.799,474.395 582.723,474.423 582.651,474.479C582.579,474.535 582.543,474.603 582.543,474.683L582.543,475.691C582.543,475.771 582.579,475.843 582.651,475.907C582.723,475.971 582.799,476.003 582.879,476.003L585.711,476.003C586.015,476.003 586.275,476.107 586.491,476.315C586.707,476.523 586.815,476.787 586.815,477.107L586.815,477.731C586.815,478.035 586.707,478.295 586.491,478.511C586.275,478.727 586.015,478.835 585.711,478.835L582.375,478.835C581.639,478.835 581.007,478.575 580.479,478.055C579.951,477.535 579.687,476.899 579.687,476.147L579.687,469.091C579.687,468.595 579.811,468.147 580.059,467.747C580.307,467.347 580.631,467.023 581.031,466.775C581.431,466.527 581.879,466.403 582.375,466.403L585.711,466.403C586.207,466.403 586.655,466.527 587.055,466.775C587.455,467.023 587.775,467.347 588.015,467.747C588.255,468.147 588.375,468.595 588.375,469.091L588.375,471.707ZM585.543,471.227L585.543,469.595C585.543,469.499 585.507,469.419 585.435,469.355C585.363,469.291 585.287,469.259 585.207,469.259L582.879,469.259C582.799,469.259 582.723,469.291 582.651,469.355C582.579,469.419 582.543,469.499 582.543,469.595L582.543,471.227C582.543,471.291 582.579,471.355 582.651,471.419C582.723,471.483 582.799,471.515 582.879,471.515L585.207,471.515C585.287,471.515 585.363,471.483 585.435,471.419C585.507,471.355 585.543,471.291 585.543,471.227Z" style="fill:rgb(68,84,106);fill-rule:nonzero;"/>
            <path d="M598.287,476.147C598.287,476.899 598.027,477.535 597.507,478.055C596.987,478.575 596.359,478.835 595.623,478.835L592.287,478.835C591.551,478.835 590.919,478.575 590.391,478.055C589.863,477.535 589.599,476.899 589.599,476.147L589.599,463.715C589.599,463.395 589.707,463.131 589.923,462.923C590.139,462.715 590.399,462.611 590.703,462.611L591.375,462.611C591.679,462.611 591.935,462.715 592.143,462.923C592.351,463.131 592.455,463.395 592.455,463.715L592.455,466.115C592.455,466.195 592.491,466.263 592.563,466.319C592.635,466.375 592.711,466.403 592.791,466.403L595.623,466.403C596.119,466.403 596.567,466.523 596.967,466.763C597.367,467.003 597.687,467.327 597.927,467.735C598.167,468.143 598.287,468.595 598.287,469.091L598.287,476.147ZM595.455,475.691L595.455,469.595C595.455,469.371 595.343,469.259 595.119,469.259L592.791,469.259C592.711,469.259 592.635,469.291 592.563,469.355C592.491,469.419 592.455,469.499 592.455,469.595L592.455,475.691C592.455,475.771 592.491,475.843 592.563,475.907C592.635,475.971 592.711,476.003 592.791,476.003L595.119,476.003C595.343,476.003 595.455,475.899 595.455,475.691Z" style="fill:rgb(68,84,106);fill-rule:nonzero;"/>
            <path d="M615.183,477.323C615.343,477.691 615.319,478.027 615.111,478.331C614.871,478.667 614.567,478.835 614.199,478.835L613.479,478.835C613.271,478.835 613.067,478.771 612.867,478.643C612.667,478.515 612.527,478.355 612.447,478.163L610.191,472.763C610.111,472.571 609.967,472.475 609.759,472.475L607.527,472.475C607.319,472.475 607.215,472.579 607.215,472.787L607.215,477.731C607.215,478.035 607.107,478.295 606.891,478.511C606.675,478.727 606.415,478.835 606.111,478.835L605.439,478.835C605.135,478.835 604.883,478.727 604.683,478.511C604.483,478.295 604.383,478.035 604.383,477.731L604.383,463.715C604.383,463.395 604.483,463.131 604.683,462.923C604.883,462.715 605.135,462.611 605.439,462.611L611.943,462.611C612.519,462.611 613.047,462.755 613.527,463.043C614.007,463.331 614.391,463.715 614.679,464.195C614.967,464.675 615.111,465.211 615.111,465.803L615.111,469.307C615.111,469.931 614.947,470.495 614.619,470.999C614.291,471.503 613.863,471.891 613.335,472.163C613.271,472.179 613.223,472.231 613.191,472.319C613.159,472.407 613.167,472.491 613.215,472.571L615.183,477.323ZM612.255,469.307L612.255,465.803C612.255,465.579 612.151,465.467 611.943,465.467L607.527,465.467C607.319,465.467 607.215,465.571 607.215,465.779L607.215,469.307C607.215,469.515 607.319,469.619 607.527,469.619L611.943,469.619C612.151,469.619 612.255,469.515 612.255,469.307Z" style="fill:rgb(68,84,106);fill-rule:nonzero;"/>
            <path d="M625.215,471.707C625.215,472.187 625.095,472.631 624.855,473.039C624.615,473.447 624.295,473.775 623.895,474.023C623.495,474.271 623.047,474.395 622.551,474.395L619.719,474.395C619.639,474.395 619.563,474.423 619.491,474.479C619.419,474.535 619.383,474.603 619.383,474.683L619.383,475.691C619.383,475.771 619.419,475.843 619.491,475.907C619.563,475.971 619.639,476.003 619.719,476.003L622.551,476.003C622.855,476.003 623.115,476.107 623.331,476.315C623.547,476.523 623.655,476.787 623.655,477.107L623.655,477.731C623.655,478.035 623.547,478.295 623.331,478.511C623.115,478.727 622.855,478.835 622.551,478.835L619.215,478.835C618.479,478.835 617.847,478.575 617.319,478.055C616.791,477.535 616.527,476.899 616.527,476.147L616.527,469.091C616.527,468.595 616.651,468.147 616.899,467.747C617.147,467.347 617.471,467.023 617.871,466.775C618.271,466.527 618.719,466.403 619.215,466.403L622.551,466.403C623.047,466.403 623.495,466.527 623.895,466.775C624.295,467.023 624.615,467.347 624.855,467.747C625.095,468.147 625.215,468.595 625.215,469.091L625.215,471.707ZM622.383,471.227L622.383,469.595C622.383,469.499 622.347,469.419 622.275,469.355C622.203,469.291 622.127,469.259 622.047,469.259L619.719,469.259C619.639,469.259 619.563,469.291 619.491,469.355C619.419,469.419 619.383,469.499 619.383,469.595L619.383,471.227C619.383,471.291 619.419,471.355 619.491,471.419C619.563,471.483 619.639,471.515 619.719,471.515L622.047,471.515C622.127,471.515 622.203,471.483 622.275,471.419C622.347,471.355 622.383,471.291 622.383,471.227Z" style="fill:rgb(68,84,106);fill-rule:nonzero;"/>
            <path d="M635.127,476.147C635.127,476.899 634.867,477.535 634.347,478.055C633.827,478.575 633.199,478.835 632.463,478.835L629.127,478.835C628.391,478.835 627.759,478.575 627.231,478.055C626.703,477.535 626.439,476.899 626.439,476.147L626.439,473.531C626.439,473.035 626.563,472.591 626.811,472.199C627.059,471.807 627.383,471.491 627.783,471.251C628.183,471.011 628.631,470.891 629.127,470.891L631.959,470.891C632.039,470.891 632.115,470.859 632.187,470.795C632.259,470.731 632.295,470.651 632.295,470.555L632.295,469.595C632.295,469.499 632.259,469.419 632.187,469.355C632.115,469.291 632.039,469.259 631.959,469.259L629.127,469.259C628.823,469.259 628.563,469.155 628.347,468.947C628.131,468.739 628.023,468.483 628.023,468.179L628.023,467.531C628.023,467.211 628.131,466.943 628.347,466.727C628.563,466.511 628.823,466.403 629.127,466.403L632.463,466.403C632.959,466.403 633.407,466.523 633.807,466.763C634.207,467.003 634.527,467.327 634.767,467.735C635.007,468.143 635.127,468.595 635.127,469.091L635.127,476.147ZM632.295,475.691L632.295,474.035C632.295,473.955 632.259,473.883 632.187,473.819C632.115,473.755 632.039,473.723 631.959,473.723L629.631,473.723C629.551,473.723 629.475,473.755 629.403,473.819C629.331,473.883 629.295,473.955 629.295,474.035L629.295,475.691C629.295,475.771 629.331,475.843 629.403,475.907C629.475,475.971 629.551,476.003 629.631,476.003L631.959,476.003C632.039,476.003 632.115,475.971 632.187,475.907C632.259,475.843 632.295,475.771 632.295,475.691Z" style="fill:rgb(68,84,106);fill-rule:nonzero;"/>
            <path d="M645.039,476.147C645.039,476.899 644.779,477.535 644.259,478.055C643.739,478.575 643.111,478.835 642.375,478.835L639.039,478.835C638.303,478.835 637.671,478.575 637.143,478.055C636.615,477.535 636.351,476.899 636.351,476.147L636.351,469.091C636.351,468.595 636.475,468.143 636.723,467.735C636.971,467.327 637.295,467.003 637.695,466.763C638.095,466.523 638.543,466.403 639.039,466.403L641.871,466.403C642.095,466.403 642.207,466.307 642.207,466.115L642.207,463.715C642.207,463.395 642.311,463.131 642.519,462.923C642.727,462.715 642.983,462.611 643.287,462.611L643.959,462.611C644.263,462.611 644.519,462.715 644.727,462.923C644.935,463.131 645.039,463.395 645.039,463.715L645.039,476.147ZM642.207,475.691L642.207,469.595C642.207,469.371 642.095,469.259 641.871,469.259L639.543,469.259C639.463,469.259 639.387,469.291 639.315,469.355C639.243,469.419 639.207,469.499 639.207,469.595L639.207,475.691C639.207,475.771 639.243,475.843 639.315,475.907C639.387,475.971 639.463,476.003 639.543,476.003L641.871,476.003C642.095,476.003 642.207,475.899 642.207,475.691Z" style="fill:rgb(68,84,106);fill-rule:nonzero;"/>
        </g>
    </g>
    <defs>
        <radialGradient id="_Radial1" cx="0" cy="0" r="1" gradientUnits="userSpaceOnUse" gradientTransform="matrix(520.471,0,0,520.471,640,380)"><stop offset="0" style="stop-color:rgb(238,234,226);stop-opacity:1"/><stop offset="0.03" style="stop-color:rgb(237,233,225);stop-opacity:1"/><stop offset="0.15" style="stop-color:rgb(237,233,224);stop-opacity:1"/><stop offset="0.18" style="stop-color:rgb(237,232,224);stop-opacity:1"/><stop offset="0.21" style="stop-color:rgb(236,232,223);stop-opacity:1"/><stop offset="0.26" style="stop-color:rgb(236,231,222);stop-opacity:1"/><stop offset="0.28" style="stop-color:rgb(235,231,222);stop-opacity:1"/><stop offset="0.31" style="stop-color:rgb(235,230,221);stop-opacity:1"/><stop offset="0.33" style="stop-color:rgb(235,230,220);stop-opacity:1"/><stop offset="0.36" style="stop-color:rgb(234,229,220);stop-opacity:1"/><stop offset="0.38" style="stop-color:rgb(234,228,219);stop-opacity:1"/><stop offset="0.41" style="stop-color:rgb(233,228,218);stop-opacity:1"/><stop offset="0.51" style="stop-color:rgb(231,225,214);stop-opacity:1"/><stop offset="0.59" style="stop-color:rgb(229,222,211);stop-opacity:1"/><stop offset="0.62" style="stop-color:rgb(229,221,209);stop-opacity:1"/><stop offset="0.69" style="stop-color:rgb(226,218,205);stop-opacity:1"/><stop offset="0.79" style="stop-color:rgb(223,214,199);stop-opacity:1"/><stop offset="0.85" style="stop-color:rgb(221,212,196);stop-opacity:1"/><stop offset="0.87" style="stop-color:rgb(220,210,195);stop-opacity:1"/><stop offset="0.95" style="stop-color:rgb(218,206,189);stop-opacity:1"/><stop offset="0.97" style="stop-color:rgb(217,205,187);stop-opacity:1"/><stop offset="1" style="stop-color:rgb(216,204,186);stop-opacity:1"/></radialGradient>
    </defs>
</svg>
