<?xml version="1.0" encoding="UTF-8" standalone="no"?><!DOCTYPE svg PUBLIC "-//W3C//DTD SVG 1.1//EN" "http://www.w3.org/Graphics/SVG/1.1/DTD/svg11.dtd"><svg width="100%" height="100%" viewBox="0 0 7088 1983" version="1.1" xmlns="http://www.w3.org/2000/svg" xmlns:xlink="http://www.w3.org/1999/xlink" xml:space="preserve" xmlns:serif="http://www.serif.com/" style="fill-rule:evenodd;clip-rule:evenodd;stroke-linejoin:round;stroke-miterlimit:2;"><g><clipPath id="_clip1"><rect id="logo.svg" x="0" y="0" width="7087.5" height="1562.5"/></clipPath><g clip-path="url(#_clip1)"><g><g><g><g><path d="M782.031,0.001l312.814,0c431.905,0 782.032,349.777 782.032,781.25l-0,234.375c-0,302.032 -245.09,546.875 -547.422,546.875l-782.034,0c-302.332,0 -547.421,-244.843 -547.421,-546.875l-0,-234.375c-0,-431.473 350.126,-781.25 782.031,-781.25Z" style="fill:url(#_Radial2);"/></g><g><path d="M827.78,274.494l221.316,0c305.572,0 553.287,247.891 553.287,553.679l0,166.104c0,214.05 -173.4,387.575 -387.3,387.575l-553.289,-0c-213.901,-0 -387.301,-173.525 -387.301,-387.575l0,-166.104c0,-305.788 247.715,-553.679 553.287,-553.679Z" style="fill:#523a37;"/></g></g><g><g><path d="M39.883,557.199c0,-14.9 12.081,-26.98 26.981,-26.98c14.9,-0 26.98,12.08 26.98,26.98l-0,448.104c-0,14.9 -12.08,26.98 -26.98,26.98c-14.9,0 -26.981,-12.08 -26.981,-26.98l0,-448.104Z" style="fill:#d7c35f;"/></g><g><path d="M121.997,580.66c-0,-14.9 12.08,-26.98 26.98,-26.98c14.9,-0 26.98,12.08 26.98,26.98l0,401.182c0,14.9 -12.08,26.98 -26.98,26.98c-14.9,0 -26.98,-12.08 -26.98,-26.98l-0,-401.182Z" style="fill:#d7c35f;"/></g><g><path d="M204.11,638.139c0,-15.547 12.606,-28.153 28.153,-28.153c15.548,0 28.153,12.606 28.153,28.153l0,286.224c0,15.548 -12.605,28.153 -28.153,28.153c-15.547,0 -28.153,-12.605 -28.153,-28.153l0,-286.224Z" style="fill:#d7c35f;"/></g><g><path d="M288.57,557.199c-0,-14.9 12.08,-26.98 26.98,-26.98c14.9,-0 26.98,12.08 26.98,26.98l-0,448.104c-0,14.9 -12.08,26.98 -26.98,26.98c-14.9,0 -26.98,-12.08 -26.98,-26.98l-0,-448.104Z" style="fill:#d7c35f;"/></g><g><path d="M370.683,581.833c-0,-15.548 12.606,-28.153 28.153,-28.153c15.55,-0 28.153,12.605 28.153,28.153l0,398.836c0,15.55 -12.605,28.153 -28.153,28.153c-15.547,0 -28.153,-12.605 -28.153,-28.153l-0,-398.836Z" style="fill:#d7c35f;"/></g><g><path d="M455.142,442.24c0,-14.9 12.08,-26.98 26.981,-26.98c14.902,0 26.98,12.08 26.98,26.98l-0,678.022c-0,14.902 -12.08,26.98 -26.98,26.98c-14.901,0 -26.981,-12.08 -26.981,-26.98l0,-678.022Z" style="fill:#d7c35f;"/></g><g><path d="M537.256,557.199c-0,-14.9 12.08,-26.98 26.98,-26.98c14.9,-0 26.98,12.08 26.98,26.98l-0,448.104c-0,14.9 -12.08,26.98 -26.98,26.98c-14.9,0 -26.98,-12.08 -26.98,-26.98l-0,-448.104Z" style="fill:#d7c35f;"/></g><g><path d="M619.369,602.948c0,-15.548 12.606,-28.153 28.153,-28.153c15.548,-0 28.153,12.605 28.153,28.153l0,356.606c0,15.548 -12.605,28.154 -28.153,28.154c-15.547,-0 -28.153,-12.606 -28.153,-28.154l0,-356.606Z" style="fill:#d7c35f;"/></g><g><path d="M703.829,735.502c-0,-14.9 12.08,-26.98 26.98,-26.98c14.9,0 26.98,12.08 26.98,26.98l-0,91.498c-0,14.9 -12.08,26.98 -26.98,26.98c-14.9,0 -26.98,-12.08 -26.98,-26.98l-0,-91.498Z" style="fill:#d7c35f;"/></g><g><path d="M785.942,506.758c-0,-15.548 12.606,-28.153 28.153,-28.153c15.548,-0 28.153,12.605 28.153,28.153l0,548.986c0,15.548 -12.605,28.153 -28.153,28.153c-15.547,0 -28.153,-12.605 -28.153,-28.153l-0,-548.986Z" style="fill:#d7c35f;"/></g><g><path d="M870.401,667.465c0,-14.9 12.08,-26.98 26.981,-26.98c14.9,0 26.98,12.08 26.98,26.98l-0,227.572c-0,14.9 -12.08,26.98 -26.98,26.98c-14.901,-0 -26.981,-12.08 -26.981,-26.98l0,-227.572Z" style="fill:#d7c35f;"/></g><g><path d="M952.515,533.738c-0,-14.9 12.08,-26.98 26.98,-26.98c14.9,-0 26.98,12.08 26.98,26.98l-0,495.026c-0,14.9 -12.08,26.98 -26.98,26.98c-14.9,0 -26.98,-12.08 -26.98,-26.98l-0,-495.026Z" style="fill:#d7c35f;"/></g><g><path d="M1034.63,476.259c0,-15.548 12.606,-28.154 28.153,-28.154c15.55,0 28.153,12.606 28.153,28.154l0,609.985c0,15.549 -12.605,28.153 -28.153,28.153c-15.547,-0 -28.153,-12.606 -28.153,-28.153l0,-609.985Z" style="fill:#d7c35f;"/></g><g><path d="M1119.09,601.775c-0,-14.9 12.08,-26.98 26.98,-26.98c14.9,-0 26.98,12.08 26.98,26.98l-0,358.952c-0,14.9 -12.08,26.981 -26.98,26.981c-14.9,-0 -26.98,-12.081 -26.98,-26.981l-0,-358.952Z" style="fill:#d7c35f;"/></g><g><path d="M1201.2,558.372c-0,-15.548 12.605,-28.153 28.153,-28.153c15.55,-0 28.153,12.605 28.153,28.153l0,445.758c0,15.55 -12.605,28.153 -28.153,28.153c-15.548,0 -28.153,-12.605 -28.153,-28.153l-0,-445.758Z" style="fill:#d7c35f;"/></g><g><path d="M1285.66,404.703c0,-14.9 12.08,-26.98 26.98,-26.98c14.903,-0 26.981,12.08 26.981,26.98l-0,753.096c-0,14.903 -12.08,26.981 -26.981,26.981c-14.9,-0 -26.98,-12.08 -26.98,-26.981l0,-753.096Z" style="fill:#d7c35f;"/></g><g><path d="M1367.77,636.966c-0,-14.9 12.08,-26.98 26.98,-26.98c14.9,0 26.98,12.08 26.98,26.98l-0,288.57c-0,14.9 -12.08,26.98 -26.98,26.98c-14.9,0 -26.98,-12.08 -26.98,-26.98l-0,-288.57Z" style="fill:#d7c35f;"/></g><g><path d="M1449.89,581.833c0,-15.548 12.606,-28.153 28.153,-28.153c15.55,-0 28.153,12.605 28.153,28.153l0,398.836c0,15.55 -12.605,28.153 -28.153,28.153c-15.547,0 -28.153,-12.605 -28.153,-28.153l0,-398.836Z" style="fill:#d7c35f;"/></g><g><path d="M1534.35,475.086c-0,-14.9 12.08,-26.981 26.98,-26.981c14.902,0 26.98,12.081 26.98,26.981l-0,612.331c-0,14.902 -12.08,26.98 -26.98,26.98c-14.9,-0 -26.98,-12.08 -26.98,-26.98l-0,-612.331Z" style="fill:#d7c35f;"/></g><g><path d="M1616.46,638.139c-0,-15.547 12.605,-28.153 28.153,-28.153c15.548,0 28.153,12.606 28.153,28.153l0,286.224c0,15.548 -12.605,28.153 -28.153,28.153c-15.548,0 -28.153,-12.605 -28.153,-28.153l-0,-286.224Z" style="fill:#d7c35f;"/></g><g><path d="M1700.92,533.738c0,-14.9 12.08,-26.98 26.98,-26.98c14.9,-0 26.981,12.08 26.981,26.98l-0,495.026c-0,14.9 -12.081,26.98 -26.981,26.98c-14.9,0 -26.98,-12.08 -26.98,-26.98l0,-495.026Z" style="fill:#d7c35f;"/></g><g><path d="M1783.03,580.66c-0,-14.9 12.082,-26.98 26.98,-26.98c14.897,-0 26.98,12.08 26.98,26.98l-0,401.182c-0,14.9 -12.083,26.98 -26.98,26.98c-14.898,0 -26.98,-12.08 -26.98,-26.98l-0,-401.182Z" style="fill:#d7c35f;"/></g></g></g><g><path d="M2487.68,536.876c6.316,12.107 6.053,24.476 -0.79,37.109l-147.644,240.022c-2.106,2.631 -3.159,7.105 -3.159,13.422l0,188.701c0,10.001 -3.553,18.554 -10.658,25.66c-7.106,7.106 -15.66,10.659 -25.661,10.659l-22.107,0c-10.001,0 -18.554,-3.553 -25.66,-10.659c-7.106,-7.106 -10.659,-15.659 -10.659,-25.66l-0,-189.491c-0,-5.79 -1.316,-10.001 -3.948,-12.632l-146.855,-240.022c-6.843,-13.159 -7.106,-25.266 -0.79,-36.319c6.843,-12.633 17.37,-18.949 31.582,-18.949l25.266,-0c14.211,-0 24.739,5.79 31.581,17.37c5.79,8.948 14.475,23.16 26.055,42.635c11.58,19.476 24.476,40.662 38.688,63.559c14.212,22.896 27.634,44.609 40.267,65.137c1.053,2.105 2.763,3.158 5.132,3.158c2.369,0 4.342,-1.053 5.921,-3.158c14.212,-23.16 28.161,-45.925 41.846,-68.296c13.686,-22.37 26.187,-42.635 37.504,-60.795c11.317,-18.159 19.87,-32.239 25.66,-42.24c6.843,-11.58 17.107,-17.37 30.792,-17.37l25.266,-0c14.738,-0 25.528,6.053 32.371,18.159Z" style="fill:#44546a;fill-rule:nonzero;"/><path d="M2794.02,964.02c0,24.739 -8.553,45.662 -25.66,62.769c-17.107,17.107 -37.766,25.66 -61.979,25.66l-109.747,0c-24.212,0 -45.004,-8.553 -62.374,-25.66c-17.37,-17.107 -26.055,-38.03 -26.055,-62.769l0,-283.447c0,-10.527 3.553,-19.343 10.659,-26.449c7.106,-7.106 15.659,-10.659 25.66,-10.659l22.108,-0c10,-0 18.422,3.553 25.265,10.659c6.843,7.106 10.264,15.922 10.264,26.449l0,268.446c0,2.632 1.184,5 3.553,7.106c2.369,2.105 4.869,3.158 7.501,3.158l76.586,-0c2.631,-0 5.132,-1.053 7.5,-3.158c2.369,-2.106 3.553,-4.474 3.553,-7.106l0,-268.446c0,-10.527 3.422,-19.343 10.264,-26.449c6.843,-7.106 15.265,-10.659 25.266,-10.659l22.107,-0c10.001,-0 18.423,3.553 25.265,10.659c6.843,7.106 10.264,15.922 10.264,26.449l0,283.447Z" style="fill:#44546a;fill-rule:nonzero;"/><path d="M3116.95,1030.34c-5.79,14.738 -16.58,22.107 -32.371,22.107l-29.213,0c-10.527,0 -19.739,-3.948 -27.634,-11.843l-92.377,-101.851c-0.526,-1.053 -1.711,-1.316 -3.553,-0.79c-1.842,0.527 -2.763,1.842 -2.763,3.948l-0,74.217c-0,10.001 -3.553,18.554 -10.659,25.66c-7.106,7.106 -15.659,10.659 -25.66,10.659l-22.108,0c-10.001,0 -18.554,-3.553 -25.66,-10.659c-7.106,-7.106 -10.659,-15.659 -10.659,-25.66l0,-461.094c0,-10.527 3.553,-19.212 10.659,-26.055c7.106,-6.843 15.659,-10.264 25.66,-10.264l22.108,-0c10.001,-0 18.554,3.421 25.66,10.264c7.106,6.843 10.659,15.528 10.659,26.055l-0,199.755c-0,1.579 0.921,2.763 2.763,3.553c1.842,0.789 3.027,0.394 3.553,-1.185l83.692,-90.797c6.843,-7.896 15.528,-11.844 26.055,-11.844l29.213,0c15.264,0 26.318,7.37 33.161,22.108c2.632,6.316 3.421,13.027 2.368,20.133c-1.052,7.106 -3.947,13.028 -8.685,17.765l-114.484,126.327c-2.105,2.106 -3.158,4.606 -3.158,7.501c0,2.895 1.053,5.132 3.158,6.711l123.959,136.591c4.737,5.264 7.764,11.449 9.08,18.555c1.316,7.105 0.395,13.817 -2.764,20.133Z" style="fill:#44546a;fill-rule:nonzero;"/><path d="M3443.03,1030.34c-5.79,14.738 -16.58,22.107 -32.371,22.107l-29.213,0c-10.527,0 -19.739,-3.948 -27.634,-11.843l-92.377,-101.851c-0.526,-1.053 -1.711,-1.316 -3.553,-0.79c-1.842,0.527 -2.763,1.842 -2.763,3.948l-0,74.217c-0,10.001 -3.553,18.554 -10.659,25.66c-7.106,7.106 -15.659,10.659 -25.66,10.659l-22.108,0c-10,0 -18.554,-3.553 -25.66,-10.659c-7.106,-7.106 -10.659,-15.659 -10.659,-25.66l0,-461.094c0,-10.527 3.553,-19.212 10.659,-26.055c7.106,-6.843 15.66,-10.264 25.66,-10.264l22.108,-0c10.001,-0 18.554,3.421 25.66,10.264c7.106,6.843 10.659,15.528 10.659,26.055l-0,199.755c-0,1.579 0.921,2.763 2.763,3.553c1.842,0.789 3.027,0.394 3.553,-1.185l83.692,-90.797c6.843,-7.896 15.528,-11.844 26.055,-11.844l29.213,0c15.265,0 26.318,7.37 33.161,22.108c2.632,6.316 3.421,13.027 2.369,20.133c-1.053,7.106 -3.948,13.028 -8.685,17.765l-114.484,126.327c-2.106,2.106 -3.159,4.606 -3.159,7.501c0,2.895 1.053,5.132 3.159,6.711l123.958,136.591c4.737,5.264 7.764,11.449 9.08,18.555c1.316,7.105 0.395,13.817 -2.764,20.133Z" style="fill:#44546a;fill-rule:nonzero;"/><path d="M3764.38,964.02c0,24.739 -8.553,45.662 -25.66,62.769c-17.107,17.107 -37.766,25.66 -61.979,25.66l-109.747,0c-24.213,0 -45.004,-8.553 -62.374,-25.66c-17.37,-17.107 -26.055,-38.03 -26.055,-62.769l-0,-283.447c-0,-10.527 3.553,-19.343 10.659,-26.449c7.106,-7.106 15.659,-10.659 25.66,-10.659l22.107,-0c10.001,-0 18.423,3.553 25.266,10.659c6.842,7.106 10.264,15.922 10.264,26.449l-0,268.446c-0,2.632 1.184,5 3.553,7.106c2.368,2.105 4.869,3.158 7.5,3.158l76.586,-0c2.632,-0 5.132,-1.053 7.501,-3.158c2.369,-2.106 3.553,-4.474 3.553,-7.106l-0,-268.446c-0,-10.527 3.421,-19.343 10.264,-26.449c6.843,-7.106 15.265,-10.659 25.265,-10.659l22.108,-0c10.001,-0 18.422,3.553 25.265,10.659c6.843,7.106 10.264,15.922 10.264,26.449l0,283.447Z" style="fill:#44546a;fill-rule:nonzero;"/><path d="M4039.14,701.891c-0,10.001 -3.421,18.423 -10.264,25.266c-6.843,6.842 -15.265,10.264 -25.266,10.264l-93.955,-0c-6.843,-0 -10.265,3.684 -10.265,11.053l0,267.656c0,10.001 -3.552,18.554 -10.658,25.66c-7.106,7.106 -15.66,10.659 -25.661,10.659l-22.107,0c-10.001,0 -18.423,-3.553 -25.265,-10.659c-6.843,-7.106 -10.264,-15.659 -10.264,-25.66l-0,-284.236c-0,-16.317 3.947,-31.187 11.843,-44.609c7.895,-13.423 18.423,-24.082 31.582,-31.977c13.159,-7.895 27.897,-11.843 44.214,-11.843l110.536,-0c10.001,-0 18.423,3.553 25.266,10.659c6.843,7.106 10.264,15.922 10.264,26.449l-0,21.318Z" style="fill:#44546a;fill-rule:nonzero;"/><path d="M4198.62,569.248c0,16.317 -5.922,30.397 -17.765,42.24c-11.843,11.843 -25.66,17.765 -41.451,17.765c-16.317,0 -30.397,-5.922 -42.241,-17.765c-11.843,-11.843 -17.764,-25.923 -17.764,-42.24c-0,-15.791 5.921,-29.608 17.764,-41.451c11.844,-11.844 25.924,-17.765 42.241,-17.765c15.791,-0 29.608,5.921 41.451,17.765c11.843,11.843 17.765,25.66 17.765,41.451Zm-12.633,446.882c0,10.001 -3.553,18.554 -10.659,25.66c-7.105,7.106 -15.659,10.659 -25.66,10.659l-21.317,0c-10.001,0 -18.555,-3.553 -25.661,-10.659c-7.106,-7.106 -10.659,-15.659 -10.659,-25.66l0,-327.661c0,-10.001 3.553,-18.554 10.659,-25.66c7.106,-7.106 15.66,-10.659 25.661,-10.659l21.317,-0c10.001,-0 18.555,3.553 25.66,10.659c7.106,7.106 10.659,15.659 10.659,25.66l0,327.661Z" style="fill:#44546a;fill-rule:nonzero;"/><path d="M4918.69,562.931l-105.009,461.095c-2.106,8.421 -6.448,15.264 -13.028,20.528c-6.579,5.263 -14.08,7.895 -22.502,7.895l-28.424,0c-7.895,0 -15.001,-2.368 -21.317,-7.106c-6.317,-4.737 -10.791,-10.79 -13.423,-18.159l-3.158,-10.264c-6.842,-21.581 -14.606,-46.584 -23.291,-75.007c-8.685,-28.424 -17.765,-58.163 -27.24,-89.219c-0.526,-2.105 -1.71,-3.158 -3.553,-3.158c-1.842,0 -3.026,1.053 -3.553,3.158c-7.369,23.16 -14.474,46.189 -21.317,69.085c-6.843,22.897 -13.028,43.557 -18.555,61.98c-5.526,18.422 -10.132,32.897 -13.817,43.425c-2.105,6.842 -6.448,12.764 -13.027,17.764c-6.58,5.001 -13.817,7.501 -21.713,7.501l-29.213,0c-8.422,0 -15.922,-2.632 -22.502,-7.895c-6.579,-5.264 -10.659,-12.107 -12.238,-20.528l-105.009,-461.095c-2.106,-10.527 -0,-20.791 6.316,-30.792c4.211,-4.211 8.685,-7.501 13.422,-9.869c4.738,-2.369 10.001,-3.553 15.791,-3.553l22.108,-0c8.421,-0 15.922,2.632 22.502,7.895c6.579,5.264 10.922,11.843 13.027,19.739l63.953,285.815c0.527,1.579 1.843,2.369 3.948,2.369c2.105,-0 3.685,-0.79 4.737,-2.369c0,0 1.711,-5.79 5.132,-17.37c3.422,-11.58 8.027,-26.976 13.817,-46.188c5.79,-19.213 12.37,-40.662 19.739,-64.348c7.369,-23.687 14.738,-47.636 22.107,-71.849c2.632,-7.369 6.843,-13.554 12.633,-18.554c5.79,-5.001 12.896,-7.501 21.318,-7.501c8.948,0 16.449,2.5 22.502,7.501c6.053,5 10.132,11.448 12.238,19.344l60.795,198.965c1.052,1.579 2.631,2.369 4.737,2.369c2.105,-0 3.421,-0.79 3.948,-2.369c6.842,-31.055 13.685,-61.848 20.528,-92.377c6.843,-30.529 13.29,-58.952 19.344,-85.271c6.053,-26.318 11.185,-48.951 15.396,-67.9c4.211,-18.949 7.106,-32.372 8.685,-40.267c2.105,-7.896 6.448,-14.475 13.027,-19.739c6.58,-5.263 14.08,-7.895 22.502,-7.895l22.108,-0c5.79,-0 11.053,1.184 15.79,3.553c4.738,2.368 8.949,5.658 12.633,9.869c7.369,9.475 9.738,19.739 7.106,30.792Z" style="fill:#44546a;fill-rule:nonzero;"/><path d="M5221.09,817.954c-0,15.791 -3.948,30.398 -11.843,43.82c-7.896,13.422 -18.423,24.213 -31.582,32.371c-13.159,8.159 -27.897,12.238 -44.215,12.238l-93.166,0c-2.632,0 -5.132,0.921 -7.501,2.764c-2.368,1.842 -3.553,4.079 -3.553,6.711l0,33.161c0,2.632 1.185,5 3.553,7.106c2.369,2.105 4.869,3.158 7.501,3.158l93.166,-0c10.001,-0 18.555,3.421 25.661,10.264c7.105,6.843 10.658,15.528 10.658,26.055l0,20.528c0,10.001 -3.553,18.554 -10.658,25.66c-7.106,7.106 -15.66,10.659 -25.661,10.659l-109.746,0c-24.213,0 -45.005,-8.553 -62.374,-25.66c-17.37,-17.107 -26.055,-38.03 -26.055,-62.769l-0,-232.126c-0,-16.317 4.079,-31.056 12.237,-44.215c8.159,-13.159 18.818,-23.818 31.977,-31.976c13.159,-8.159 27.897,-12.238 44.215,-12.238l109.746,-0c16.318,-0 31.056,4.079 44.215,12.238c13.159,8.158 23.686,18.817 31.582,31.976c7.895,13.159 11.843,27.898 11.843,44.215l-0,86.06Zm-93.167,-15.791l0,-53.689c0,-3.158 -1.184,-5.79 -3.552,-7.895c-2.369,-2.106 -4.869,-3.158 -7.501,-3.158l-76.586,-0c-2.632,-0 -5.132,1.052 -7.501,3.158c-2.368,2.105 -3.553,4.737 -3.553,7.895l0,53.689c0,2.106 1.185,4.211 3.553,6.317c2.369,2.105 4.869,3.158 7.501,3.158l76.586,-0c2.632,-0 5.132,-1.053 7.501,-3.158c2.368,-2.106 3.552,-4.211 3.552,-6.317Z" style="fill:#44546a;fill-rule:nonzero;"/><path d="M5547.17,964.02c-0,24.739 -8.554,45.662 -25.66,62.769c-17.107,17.107 -37.767,25.66 -61.98,25.66l-109.746,0c-24.213,0 -45.004,-8.553 -62.374,-25.66c-17.37,-17.107 -26.055,-38.03 -26.055,-62.769l-0,-408.984c-0,-10.527 3.553,-19.212 10.658,-26.055c7.106,-6.843 15.66,-10.264 25.661,-10.264l22.107,-0c10.001,-0 18.423,3.421 25.265,10.264c6.843,6.843 10.264,15.528 10.264,26.055l0,78.954c0,2.632 1.185,4.869 3.553,6.711c2.369,1.843 4.869,2.764 7.501,2.764l93.166,-0c16.318,-0 31.056,3.948 44.215,11.843c13.159,7.895 23.686,18.554 31.582,31.977c7.895,13.422 11.843,28.292 11.843,44.609l-0,232.126Zm-93.166,-15.001l-0,-200.545c-0,-7.369 -3.685,-11.053 -11.054,-11.053l-76.586,-0c-2.632,-0 -5.132,1.052 -7.501,3.158c-2.368,2.105 -3.553,4.737 -3.553,7.895l0,200.545c0,2.632 1.185,5 3.553,7.106c2.369,2.105 4.869,3.158 7.501,3.158l76.586,-0c7.369,-0 11.054,-3.422 11.054,-10.264Z" style="fill:#44546a;fill-rule:nonzero;"/><path d="M6103.01,1002.71c5.263,12.106 4.474,23.16 -2.369,33.161c-7.896,11.053 -17.896,16.58 -30.003,16.58l-23.686,0c-6.843,0 -13.554,-2.105 -20.134,-6.316c-6.579,-4.211 -11.185,-9.475 -13.817,-15.791l-74.217,-177.648c-2.632,-6.316 -7.369,-9.474 -14.212,-9.474l-73.427,-0c-6.843,-0 -10.264,3.421 -10.264,10.264l-0,162.646c-0,10.001 -3.553,18.554 -10.659,25.66c-7.106,7.106 -15.66,10.659 -25.66,10.659l-22.108,0c-10.001,0 -18.291,-3.553 -24.87,-10.659c-6.58,-7.106 -9.87,-15.659 -9.87,-25.66l0,-461.094c0,-10.527 3.29,-19.212 9.87,-26.055c6.579,-6.843 14.869,-10.264 24.87,-10.264l213.967,-0c18.949,-0 36.319,4.737 52.11,14.212c15.791,9.474 28.424,22.107 37.898,37.898c9.475,15.791 14.212,33.424 14.212,52.899l-0,115.274c-0,20.528 -5.395,39.082 -16.186,55.663c-10.79,16.58 -24.87,29.344 -42.24,38.293c-2.106,0.526 -3.685,2.237 -4.738,5.132c-1.052,2.895 -0.789,5.658 0.79,8.29l64.743,156.33Zm-96.325,-263.708l0,-115.274c0,-7.369 -3.421,-11.053 -10.264,-11.053l-145.276,-0c-6.843,-0 -10.264,3.421 -10.264,10.264l-0,116.063c-0,6.843 3.421,10.264 10.264,10.264l145.276,-0c6.843,-0 10.264,-3.421 10.264,-10.264Z" style="fill:#44546a;fill-rule:nonzero;"/><path d="M6433.04,817.954c0,15.791 -3.947,30.398 -11.843,43.82c-7.895,13.422 -18.423,24.213 -31.582,32.371c-13.159,8.159 -27.897,12.238 -44.214,12.238l-93.166,0c-2.632,0 -5.132,0.921 -7.501,2.764c-2.369,1.842 -3.553,4.079 -3.553,6.711l-0,33.161c-0,2.632 1.184,5 3.553,7.106c2.369,2.105 4.869,3.158 7.501,3.158l93.166,-0c10.001,-0 18.554,3.421 25.66,10.264c7.106,6.843 10.659,15.528 10.659,26.055l-0,20.528c-0,10.001 -3.553,18.554 -10.659,25.66c-7.106,7.106 -15.659,10.659 -25.66,10.659l-109.747,0c-24.213,0 -45.004,-8.553 -62.374,-25.66c-17.37,-17.107 -26.055,-38.03 -26.055,-62.769l0,-232.126c0,-16.317 4.079,-31.056 12.238,-44.215c8.159,-13.159 18.818,-23.818 31.977,-31.976c13.159,-8.159 27.897,-12.238 44.214,-12.238l109.747,-0c16.317,-0 31.055,4.079 44.214,12.238c13.159,8.158 23.687,18.817 31.582,31.976c7.896,13.159 11.843,27.898 11.843,44.215l0,86.06Zm-93.166,-15.791l0,-53.689c0,-3.158 -1.184,-5.79 -3.553,-7.895c-2.369,-2.106 -4.869,-3.158 -7.501,-3.158l-76.585,-0c-2.632,-0 -5.132,1.052 -7.501,3.158c-2.369,2.105 -3.553,4.737 -3.553,7.895l-0,53.689c-0,2.106 1.184,4.211 3.553,6.317c2.369,2.105 4.869,3.158 7.501,3.158l76.585,-0c2.632,-0 5.132,-1.053 7.501,-3.158c2.369,-2.106 3.553,-4.211 3.553,-6.317Z" style="fill:#44546a;fill-rule:nonzero;"/><path d="M6759.12,964.02c0,24.739 -8.553,45.662 -25.66,62.769c-17.107,17.107 -37.766,25.66 -61.979,25.66l-109.747,0c-24.212,0 -45.004,-8.553 -62.374,-25.66c-17.37,-17.107 -26.055,-38.03 -26.055,-62.769l0,-86.06c0,-16.318 4.079,-30.924 12.238,-43.82c8.159,-12.896 18.818,-23.292 31.977,-31.187c13.159,-7.896 27.897,-11.843 44.214,-11.843l93.167,-0c2.631,-0 5.132,-1.053 7.5,-3.158c2.369,-2.106 3.553,-4.738 3.553,-7.896l0,-31.582c0,-3.158 -1.184,-5.79 -3.553,-7.895c-2.368,-2.106 -4.869,-3.158 -7.5,-3.158l-93.167,-0c-10.001,-0 -18.554,-3.422 -25.66,-10.264c-7.106,-6.843 -10.659,-15.265 -10.659,-25.266l0,-21.318c0,-10.527 3.553,-19.343 10.659,-26.449c7.106,-7.106 15.659,-10.659 25.66,-10.659l109.747,-0c16.317,-0 31.055,3.948 44.214,11.843c13.16,7.895 23.687,18.554 31.582,31.977c7.896,13.422 11.843,28.292 11.843,44.609l0,232.126Zm-93.166,-15.001l0,-54.479c0,-2.632 -1.184,-5 -3.553,-7.106c-2.368,-2.105 -4.869,-3.158 -7.5,-3.158l-76.586,0c-2.632,0 -5.132,1.053 -7.501,3.158c-2.369,2.106 -3.553,4.474 -3.553,7.106l0,54.479c0,2.632 1.184,5 3.553,7.106c2.369,2.105 4.869,3.158 7.501,3.158l76.586,-0c2.631,-0 5.132,-1.053 7.5,-3.158c2.369,-2.106 3.553,-4.474 3.553,-7.106Z" style="fill:#44546a;fill-rule:nonzero;"/><path d="M7085.2,964.02c-0,24.739 -8.554,45.662 -25.661,62.769c-17.106,17.107 -37.766,25.66 -61.979,25.66l-109.747,0c-24.212,0 -45.004,-8.553 -62.374,-25.66c-17.37,-17.107 -26.055,-38.03 -26.055,-62.769l0,-232.126c0,-16.317 4.08,-31.187 12.238,-44.609c8.159,-13.423 18.818,-24.082 31.977,-31.977c13.159,-7.895 27.897,-11.843 44.214,-11.843l93.167,-0c7.369,-0 11.053,-3.158 11.053,-9.475l0,-78.954c0,-10.527 3.422,-19.212 10.264,-26.055c6.843,-6.843 15.265,-10.264 25.266,-10.264l22.107,-0c10.001,-0 18.423,3.421 25.265,10.264c6.843,6.843 10.265,15.528 10.265,26.055l-0,408.984Zm-93.167,-15.001l0,-200.545c0,-7.369 -3.684,-11.053 -11.053,-11.053l-76.586,-0c-2.632,-0 -5.132,1.052 -7.501,3.158c-2.369,2.105 -3.553,4.737 -3.553,7.895l0,200.545c0,2.632 1.184,5 3.553,7.106c2.369,2.105 4.869,3.158 7.501,3.158l76.586,-0c7.369,-0 11.053,-3.422 11.053,-10.264Z" style="fill:#44546a;fill-rule:nonzero;"/></g></g></g><rect x="0" y="1871.36" width="224.893" height="8.996" style="fill-rule:nonzero;"/><rect x="224.893" y="1871.36" width="224.893" height="8.996" style="fill-rule:nonzero;"/><path d="M606.986,1780.28l-31.035,-3.149c-0.45,11.695 -2.924,25.188 -6.072,37.557c-6.972,0.675 -13.719,0.9 -20.466,0.9c-8.321,0 -20.24,-0.45 -29.91,-1.574l2.024,26.087c9.67,0.675 18.891,0.9 28.111,0.9c3.823,-0 7.647,-0 11.695,-0.225c-9.896,24.288 -28.112,57.348 -45.878,79.387l27.212,13.944c18.216,-25.413 37.332,-64.77 48.127,-96.255c15.067,-2.249 29.011,-5.172 39.356,-7.871l-0.9,-26.087c-8.77,2.698 -19.34,5.172 -30.36,7.196c3.373,-12.144 6.297,-23.614 8.096,-30.81Zm-11.694,155.626c-0,-7.872 8.321,-13.719 21.364,-13.719c6.297,0 12.369,0.9 18.217,2.249l-0,4.498c-0,12.369 -4.723,20.915 -20.241,20.915c-12.369,0 -19.34,-5.622 -19.34,-13.943Zm64.319,-85.684l-28.112,-0c0.45,13.718 1.575,33.733 2.474,50.376c-5.172,-0.45 -10.12,-0.9 -15.518,-0.9c-31.26,-0 -49.701,16.867 -49.701,38.906c0,24.739 22.04,37.108 49.926,37.108c31.935,-0 43.405,-16.193 43.405,-37.108l-0,-2.248c12.369,7.421 22.489,16.866 30.36,24.063l15.068,-24.063c-11.469,-10.346 -27.212,-21.59 -46.553,-28.787c-0.45,-11.244 -1.124,-22.039 -1.349,-28.561c-0.225,-9.895 -0.675,-19.341 -0,-28.786Zm38.681,11.919l15.968,-23.614c-11.47,-8.321 -39.356,-23.614 -55.549,-30.585l-14.393,22.264c15.293,6.972 40.931,21.59 53.974,31.935Z" style="fill-rule:nonzero;"/><path d="M863.814,1802.32l-19.566,8.321c8.096,11.47 13.943,22.265 20.69,36.658l20.016,-8.771c-4.948,-10.345 -14.843,-26.762 -21.14,-36.208Zm30.135,-12.369l-19.34,8.996c8.321,11.245 14.393,21.59 21.589,35.758l19.566,-9.446c-4.948,-10.12 -15.293,-26.087 -21.815,-35.308Zm-88.158,-5.622l-36.207,-0.45c1.799,8.771 2.698,19.566 2.698,30.361c0,19.34 -2.024,78.487 -2.024,108.623c0,38.232 23.614,54.424 60.496,54.424c51.276,0 83.211,-29.911 97.829,-51.5l-20.465,-24.964c-16.418,24.514 -39.806,46.103 -76.914,46.103c-17.541,0 -31.26,-7.421 -31.26,-30.135c0,-28.112 1.799,-78.263 2.924,-102.551c0.449,-8.996 1.574,-20.466 2.923,-29.911Z" style="fill-rule:nonzero;"/><path d="M998.749,1791.07l1.125,29.011c5.847,-0.9 13.718,-1.574 18.216,-1.799c10.345,-0.675 29.686,-1.35 38.682,-1.799c-5.173,10.57 -11.695,25.862 -17.992,40.705c-45.203,2.024 -76.913,28.562 -76.913,63.42c-0,22.714 14.843,36.433 34.633,36.433c15.293,-0 26.088,-6.297 35.084,-19.791c7.871,-12.369 17.317,-34.858 25.413,-53.974c19.34,2.699 37.332,9.445 53.299,18.216c-7.421,20.465 -23.164,41.83 -57.123,56.448l23.839,19.566c30.136,-15.743 47.228,-35.533 57.123,-60.946c6.972,5.172 13.494,10.345 19.341,15.742l13.044,-31.26c-6.522,-4.498 -14.619,-9.67 -24.064,-15.067c2.249,-12.595 3.373,-26.538 4.273,-41.606l-29.461,-3.373c0.675,6.747 0.675,15.742 -0,24.513c-0.225,2.474 -0.45,4.948 -0.675,7.647c-14.618,-6.297 -31.26,-11.695 -48.801,-14.394c8.096,-19.115 16.642,-38.681 22.489,-48.352c1.799,-3.148 4.498,-6.072 7.646,-9.445l-17.991,-13.943c-3.823,1.574 -9.671,2.923 -15.293,3.148c-10.57,0.9 -34.409,2.024 -47.227,2.024c-4.948,0 -12.594,-0.45 -18.667,-1.124Zm-10.57,125.265c0,-14.168 14.169,-29.461 39.357,-33.284c-6.297,14.168 -12.369,28.336 -18.217,36.657c-4.048,5.623 -7.196,7.872 -11.694,7.872c-5.173,-0 -9.446,-3.823 -9.446,-11.245Z" style="fill-rule:nonzero;"/><path d="M1383.99,1882.15c-0,-49.026 -35.083,-87.708 -90.857,-87.708c-58.247,0 -103.226,44.304 -103.226,96.254c0,38.007 20.691,65.444 45.654,65.444c24.513,0 43.854,-27.887 57.347,-73.315c6.522,-21.14 10.345,-41.83 13.494,-60.946c30.36,5.173 47.227,28.337 47.227,59.372c0,32.834 -22.489,53.524 -51.275,60.271c-6.072,1.349 -12.369,2.699 -20.915,3.598l16.867,26.763c56.673,-8.771 85.684,-42.28 85.684,-89.733Zm-165.296,5.623c-0,-24.739 20.015,-57.573 57.122,-65.219c-2.473,18.666 -6.746,37.782 -11.919,54.424c-9.22,30.36 -17.991,44.529 -27.437,44.529c-8.771,-0 -17.766,-11.02 -17.766,-33.734Z" style="fill-rule:nonzero;"/><path d="M1511.95,1780.17l-29.236,-0.675c0.247,3.935 -0.205,9.333 -0.431,13.606c-0.452,3.823 -0.904,7.871 -1.356,12.144l-9.008,-0c-13.718,-0 -33.509,-1.799 -41.38,-3.149l0.674,26.088c10.57,0.45 28.112,1.349 39.807,1.349l7.196,0c-0.899,9.221 -1.574,18.666 -2.024,28.337c-31.485,14.843 -55.324,44.978 -55.324,73.99c0,22.714 13.944,32.609 30.361,32.609c11.919,0 23.839,-3.598 34.895,-8.996c0.903,3.149 2.033,6.297 2.937,9.221l25.907,-7.871c-1.796,-5.398 -3.593,-11.02 -5.165,-16.642c17.067,-14.169 35.033,-37.782 47.159,-68.368c15.495,6.072 23.355,17.992 23.355,31.485c0,22.04 -17.516,44.079 -60.857,48.802l14.821,23.614c55.257,-8.321 73.923,-39.132 73.923,-71.066c0,-26.088 -17.317,-46.553 -43.382,-55.099c1.348,-4.273 3.144,-8.996 4.042,-11.47l-27.453,-6.522c-0.224,3.374 -1.121,8.996 -2.018,13.494l-4.037,-0c-10.987,-0 -22.648,1.574 -33.417,4.048c0.226,-6.747 0.903,-13.718 1.575,-20.465c27.582,-1.125 57.741,-3.823 79.84,-7.871l-0.225,-26.088c-24.805,5.847 -49.118,8.771 -76.475,9.895c0.573,-4.563 1.473,-8.621 2.148,-12.453c0.899,-3.381 1.799,-7.438 3.148,-11.947Zm-64.544,145.842c-0,-12.818 11.244,-29.91 28.111,-41.38c0.45,15.518 2.249,31.035 4.723,44.979c-8.096,4.722 -16.192,7.421 -22.489,7.421c-7.197,0 -10.345,-3.823 -10.345,-11.02Zm53.524,-52.4l0,-0.674c8.771,-2.699 19.116,-4.723 31.035,-4.948c-7.646,18.216 -17.766,31.935 -28.336,42.955c-1.799,-11.245 -2.699,-23.614 -2.699,-37.333Z" style="fill-rule:nonzero;"/><path d="M1713.01,1934.78c0,-5.622 5.398,-10.795 13.944,-10.795c12.144,0 20.465,9.446 21.814,24.064c-4.048,0.45 -8.321,0.675 -13.044,0.675c-13.493,-0 -22.714,-5.623 -22.714,-13.944Zm-38.232,-144.831l0.9,29.236c5.173,-0.674 12.369,-1.349 18.441,-1.799c11.92,-0.675 42.955,-2.024 54.424,-2.249c-11.019,9.671 -34.408,28.562 -47.002,38.907c-13.269,11.019 -40.481,33.959 -56.448,46.777l20.465,21.14c24.063,-27.437 46.553,-45.653 80.961,-45.653c26.538,0 46.778,13.719 46.778,33.959c0,13.718 -6.297,24.063 -18.666,30.585c-3.149,-21.364 -20.016,-38.456 -47.902,-38.456c-23.839,-0 -40.256,16.867 -40.256,35.083c-0,22.489 23.614,36.882 54.874,36.882c54.424,0 81.411,-28.111 81.411,-63.644c0,-32.835 -29.011,-56.673 -67.243,-56.673c-7.197,-0 -13.943,0.674 -21.365,2.474c14.168,-11.245 37.782,-31.036 49.926,-39.582c5.173,-3.823 10.57,-6.971 15.743,-10.345l-14.618,-20.015c-2.699,0.899 -7.871,1.574 -17.092,2.474c-12.819,1.124 -60.946,2.024 -72.865,2.024c-6.297,-0 -14.169,-0.225 -20.466,-1.125Z" style="fill-rule:nonzero;"/><path d="M1987.38,1779.83l-29.461,0.675c1.349,3.598 2.698,10.345 3.823,15.742c0.899,4.273 1.574,9.446 2.474,15.068c-25.863,6.297 -48.802,22.939 -63.42,48.352c-0.45,-14.843 3.148,-35.758 6.072,-47.452c0.9,-3.824 2.474,-8.771 4.048,-13.494l-30.585,-2.474c0.224,3.374 -0,8.546 -0.45,13.269c-1.574,13.269 -5.398,42.055 -5.398,66.343c0,22.265 2.924,46.553 7.647,62.521l25.638,-3.374c-1.35,-6.297 -2.474,-18.216 -2.474,-22.039c-0.225,-3.824 -0,-6.972 0.899,-11.02c4.498,-24.064 24.739,-57.348 60.272,-66.568c0.449,9.67 0.899,19.79 0.899,29.685c0,14.169 -1.124,29.237 -4.947,43.63c-11.47,-5.398 -19.341,-15.293 -25.863,-27.887l-16.192,20.24c6.971,14.618 18.666,25.413 32.159,32.16c-6.522,11.694 -15.967,21.815 -29.236,29.461l26.987,15.967c14.169,-10.57 24.064,-23.613 30.811,-38.007c1.349,0.225 2.923,0.225 4.273,0.225c48.127,0 72.64,-29.236 72.64,-67.917c0,-35.533 -25.863,-62.745 -66.568,-64.32c-1.35,-11.919 -2.924,-21.814 -4.048,-28.786Zm7.421,85.459c0,-10.795 -0.45,-21.589 -1.124,-31.934c25.188,2.698 35.982,20.015 35.982,40.03c0,22.49 -13.943,37.783 -39.356,39.807c3.374,-15.743 4.498,-31.935 4.498,-47.903Z" style="fill-rule:nonzero;"/><path d="M2107.25,1866.19l11.694,29.236c19.116,-8.096 64.094,-26.762 90.182,-26.762c19.566,-0 32.16,11.694 32.16,28.561c-0,30.586 -37.782,44.304 -89.283,45.653l11.92,27.662c71.516,-4.498 107.273,-32.159 107.273,-72.865c0,-33.959 -23.838,-55.099 -59.371,-55.099c-27.212,0 -65.444,12.819 -80.737,17.542c-6.747,2.024 -17.092,4.723 -23.838,6.072Z" style="fill-rule:nonzero;"/><path d="M2465.05,1799.17l-26.312,-23.164c-3.599,5.397 -10.795,12.594 -17.317,19.116c-15.068,14.618 -45.878,39.581 -63.645,53.974c-22.489,18.891 -24.288,30.81 -1.799,49.926c20.465,17.542 53.525,45.654 67.243,59.822c6.747,6.747 13.269,13.943 19.566,20.915l26.312,-24.064c-22.939,-22.264 -65.668,-55.998 -82.535,-70.166c-12.145,-10.57 -12.37,-13.044 -0.45,-23.389c15.068,-12.819 44.753,-35.758 59.371,-47.453c5.173,-4.273 12.594,-10.12 19.566,-15.517Z" style="fill-rule:nonzero;"/><path d="M2606.06,1780.73l-30.81,-1.35c-0,6.072 -0.675,15.068 -1.799,23.614c-3.149,23.164 -6.297,51.051 -6.297,71.966c-0,15.068 1.574,28.786 2.923,37.557l27.662,-1.799c-1.349,-10.57 -1.574,-17.767 -1.124,-23.839c1.124,-29.686 24.288,-69.492 50.825,-69.492c18.891,0 30.586,19.341 30.586,53.974c-0,54.425 -35.308,70.842 -85.235,78.488l17.092,26.088c59.597,-10.795 98.503,-41.156 98.503,-104.8c0,-49.477 -24.288,-80.062 -55.548,-80.062c-25.413,-0 -44.979,18.891 -55.774,36.432c1.35,-12.594 5.848,-35.758 8.996,-46.777Z" style="fill-rule:nonzero;"/><path d="M2826.45,1880.58l-25.413,-11.919c-9.22,18.891 -27.212,43.629 -42.28,58.022l24.289,16.642c12.369,-13.268 33.059,-42.729 43.404,-62.745Zm96.704,-12.594l-24.513,13.269c10.795,13.718 26.762,40.93 36.432,60.271l26.538,-14.393c-8.996,-16.417 -26.987,-44.754 -38.457,-59.147Zm-1.349,-88.608l-17.767,7.422c6.072,8.546 12.369,20.69 16.867,29.686l18.216,-7.647c-4.273,-8.321 -11.694,-21.14 -17.316,-29.461Zm29.236,-6.297l-17.767,7.197c6.297,8.546 12.819,20.24 17.542,29.686l17.766,-7.872c-4.048,-7.871 -11.469,-20.69 -17.541,-29.011Zm-71.741,10.795l-33.284,0c0.899,3.823 2.024,13.719 2.024,19.566l-0,17.991l-57.123,0c-7.197,0 -15.068,-0.899 -21.815,-1.799l0,29.911c6.297,-0.675 15.068,-0.9 21.815,-0.9l57.123,0l-0,0.225c-0,10.57 -0,81.861 -0.225,90.182c-0.225,5.847 -2.474,8.096 -8.321,8.096c-5.398,0 -15.293,-0.899 -24.963,-2.698l2.698,27.886c11.47,1.35 24.514,2.024 36.658,2.024c15.967,0 23.389,-8.096 23.389,-21.14l-0,-104.575l52.625,0c6.072,0 14.843,0.225 22.039,0.675l0,-29.461c-6.072,0.9 -15.967,1.574 -22.264,1.574l-52.4,0l-0,-17.991c-0,-5.623 1.574,-16.417 2.024,-19.566Z" style="fill-rule:nonzero;"/><path d="M2988.6,1873.83l14.168,28.337c27.662,-8.096 56.223,-20.241 79.387,-32.385l0,71.966c0,9.895 -0.674,24.063 -1.574,29.461l35.533,-0c-1.574,-5.622 -2.024,-19.566 -2.024,-29.461l0,-90.857c21.815,-14.393 43.404,-31.935 60.496,-48.802l-24.288,-23.164c-14.618,17.767 -40.256,40.256 -63.42,54.649c-24.963,15.293 -58.022,29.911 -98.278,40.256Z" style="fill-rule:nonzero;"/><path d="M3380.37,1808.84l-18.441,-13.718c-4.498,1.574 -13.493,2.923 -23.164,2.923l-79.387,0c-6.747,0 -20.465,-0.674 -26.537,-1.574l-0,31.935c4.722,-0.225 17.091,-1.574 26.537,-1.574l76.239,-0c-4.948,15.967 -18.666,38.231 -33.509,55.098c-21.14,23.614 -55.999,51.051 -92.207,64.545l23.164,24.288c30.811,-14.618 60.722,-38.007 84.56,-63.195c21.14,20.465 42.055,43.405 56.673,63.645l25.638,-22.264c-13.269,-16.193 -40.481,-44.979 -62.745,-64.32c15.068,-20.24 27.662,-44.304 35.308,-61.845c2.024,-4.498 6.072,-11.47 7.871,-13.944Z" style="fill-rule:nonzero;"/><path d="M3433.22,1807.04l2.924,30.81c26.087,-5.622 71.965,-10.57 93.105,-12.818c-15.292,11.469 -33.509,37.107 -33.509,69.491c0,48.802 44.529,73.99 91.757,77.139l10.57,-30.811c-38.232,-2.024 -72.866,-15.292 -72.866,-52.4c0,-26.762 20.466,-55.773 47.678,-62.97c11.919,-2.923 31.26,-2.923 43.404,-3.148l-0.225,-28.786c-15.967,0.674 -40.481,2.024 -63.645,4.048c-41.155,3.373 -78.262,6.746 -97.153,8.321c-4.273,0.449 -13.044,0.899 -22.04,1.124Zm150.903,37.332l-16.642,6.972c7.197,10.12 11.92,18.891 17.542,31.26l17.092,-7.646c-4.273,-8.771 -12.369,-22.49 -17.992,-30.586Zm25.188,-10.345l-16.417,7.647c7.197,9.895 12.369,18.216 18.441,30.36l16.867,-8.096c-4.722,-8.771 -13.268,-22.04 -18.891,-29.911Z" style="fill-rule:nonzero;"/><path d="M3678.81,1961.3l40.7,-0l18.214,-82.199c2.698,-13.022 4.947,-25.819 7.195,-38.617l0.9,0c2.024,12.798 4.497,25.595 7.195,38.617l18.664,82.199l41.374,-0l30.806,-166.393l-31.48,-0l-13.267,81.275c-2.473,17.288 -4.947,35.025 -7.42,52.986l-1.125,-0c-3.598,-17.961 -6.97,-35.922 -10.568,-52.986l-19.113,-81.275l-28.558,-0l-19.338,81.275c-3.598,17.288 -7.196,35.025 -10.569,52.986l-0.899,-0c-2.474,-17.961 -5.172,-35.473 -7.645,-52.986l-13.267,-81.275l-33.73,-0l31.931,166.393Z" style="fill-rule:nonzero;"/><path d="M3868.85,1961.3l104.547,-0l-0,-27.859l-71.291,-0l-0,-44.557l58.472,0l-0,-27.859l-58.472,0l-0,-38.259l68.817,-0l0,-27.859l-102.073,-0l-0,166.393Z" style="fill-rule:nonzero;"/><path d="M4007.16,1961.3l59.356,-0c36.669,-0 64.532,-15.501 64.532,-49.013c-0,-22.502 -13.257,-35.086 -31.233,-39.354l-0,-1.123c14.148,-4.942 22.687,-20.626 22.687,-35.848c-0,-30.946 -26.065,-41.055 -60.259,-41.055l-55.083,-0l-0,166.393Zm33.256,-98.7l-0,-42.083l19.802,-0c20.026,-0 29.927,5.82 29.927,20.37c0,13.207 -9.225,21.713 -30.377,21.713l-19.352,-0Zm-0,73.09l-0,-48.605l23.177,-0c22.948,-0 35.098,6.976 35.098,23.177c0,17.327 -12.375,25.428 -35.1,25.428l-23.175,-0Z" style="fill-rule:nonzero;"/><path d="M4302.43,1823.68c0,-7.871 6.297,-14.393 14.168,-14.393c7.872,0 14.394,6.522 14.394,14.393c-0,7.871 -6.522,14.168 -14.394,14.168c-7.871,0 -14.168,-6.297 -14.168,-14.168Zm-14.843,0c0,16.192 12.819,29.011 29.011,29.011c16.193,0 29.237,-12.819 29.237,-29.011c-0,-16.192 -13.044,-29.236 -29.237,-29.236c-16.192,0 -29.011,13.044 -29.011,29.236Zm-139.883,73.54l26.987,27.887c4.048,-5.847 9.446,-13.719 14.618,-20.915c8.996,-12.144 24.963,-34.409 33.734,-45.653c6.522,-8.097 11.245,-8.546 18.441,-1.35c8.096,8.321 28.112,30.136 41.156,45.653c13.268,15.518 32.384,38.682 47.452,57.348l24.738,-26.537c-17.316,-18.441 -40.256,-43.405 -55.323,-59.372c-13.494,-14.618 -30.811,-32.609 -45.879,-46.778c-17.541,-16.417 -30.81,-13.943 -44.079,1.799c-15.517,18.442 -33.059,40.481 -43.179,50.826c-6.972,6.747 -11.919,11.695 -18.666,17.092Z" style="fill-rule:nonzero;"/><path d="M4385.41,1857.19l-0,35.308c8.321,-0.674 23.389,-1.124 36.207,-1.124l120.768,-0c9.445,-0 20.915,0.9 26.312,1.124l0,-35.308c-5.847,0.45 -15.742,1.35 -26.312,1.35l-120.768,-0c-11.694,-0 -28.111,-0.675 -36.207,-1.35Z" style="fill-rule:nonzero;"/><path d="M4749.29,1788.6l-18.891,7.871c8.097,11.47 13.269,21.14 19.791,35.308l19.566,-8.321c-5.173,-10.345 -14.169,-25.413 -20.466,-34.858Zm30.811,-10.795l-19.116,7.871c8.321,11.245 13.943,20.016 21.14,34.184l19.116,-8.546c-5.398,-9.895 -14.169,-24.513 -21.14,-33.509Zm-128.639,6.522l-16.192,24.738c14.843,8.321 38.232,23.389 50.826,32.16l16.642,-24.738c-11.695,-8.321 -36.433,-24.064 -51.276,-32.16Zm-41.605,159.674l16.867,29.461c19.79,-3.598 52.175,-14.843 75.114,-27.662c36.658,-21.365 68.592,-49.701 89.283,-80.961l-17.317,-30.586c-17.767,32.16 -49.252,62.97 -87.484,84.335c-24.288,13.494 -51.275,21.14 -76.463,25.413Zm6.972,-108.399l-16.193,24.739c15.068,8.096 38.457,23.164 51.276,32.159l16.417,-25.188c-11.47,-8.096 -36.208,-23.613 -51.5,-31.71Z" style="fill-rule:nonzero;"/><path d="M4919.31,1780.95l-29.685,-2.474c-0.45,8.096 -2.024,16.867 -4.498,25.862l-10.795,0c-11.47,0 -28.112,-0.899 -39.581,-2.698l-0,26.312c12.369,0.9 28.786,1.349 38.007,1.349l2.923,0c-10.12,20.241 -26.087,40.256 -49.701,62.071l24.063,17.991c7.647,-9.895 14.169,-17.991 20.915,-24.738c8.546,-8.321 22.49,-15.517 35.084,-15.517c6.297,-0 12.369,2.024 15.742,7.646c-25.637,13.269 -52.625,31.26 -52.625,60.046c0,29.011 26.088,37.557 61.396,37.557c21.14,0 48.802,-1.799 63.645,-3.823l0.899,-29.011c-19.79,3.823 -44.753,6.297 -63.869,6.297c-22.04,0 -32.61,-3.373 -32.61,-15.742c0,-11.245 8.996,-20.016 25.863,-29.686c-0.225,9.895 -0.45,20.69 -1.124,27.437l26.987,-0c-0.225,-10.345 -0.675,-26.988 -0.9,-39.582c13.719,-6.297 26.537,-11.244 36.658,-15.292c7.646,-2.924 19.565,-7.422 26.762,-9.446l-11.245,-26.087c-8.321,4.273 -16.192,7.871 -24.963,11.694c-9.22,4.048 -18.666,7.871 -30.36,13.269c-4.948,-11.47 -16.193,-17.317 -29.911,-17.317c-7.422,0 -19.566,1.799 -25.413,4.498c4.498,-6.522 8.996,-14.618 12.819,-22.939c24.288,-0.675 51.95,-2.474 73.315,-5.623l0.225,-26.087c-19.791,3.373 -42.28,5.397 -63.645,6.522c2.924,-9.446 4.498,-16.867 5.622,-22.489Z" style="fill-rule:nonzero;"/><path d="M5171.64,1822.78l-38.906,-0l-0,21.589l108.173,0l0,-21.589l-42.729,-0l-0,-13.494l49.476,0l0,-21.59l-49.476,0l-0,-16.867l-26.538,0l0,16.867l-46.328,0l0,21.59l46.328,0l0,13.494Zm-25.188,53.524l78.038,0l0,22.04l24.738,-0l0,-42.955l-126.389,0l-0,42.955l23.613,-0l0,-22.04Zm-32.384,-98.503l-60.496,0l-0,20.24l60.496,0l-0,-20.24Zm7.196,30.136l-78.937,-0l-0,21.14l78.937,-0l0,-21.14Zm-6.746,31.26l-62.296,-0l0,20.465l62.296,0l-0,-20.465Zm-62.296,50.826l62.296,-0l-0,-20.016l-62.296,0l0,20.016Zm40.706,57.797l-19.566,0l0,-25.863l19.566,0l-0,25.863Zm22.039,-46.778l-63.419,0l-0,76.689l21.814,-0l0,-8.996l41.605,0l0,-6.747c4.948,5.173 10.795,13.719 13.269,19.566c41.605,-17.317 47.677,-47.677 49.476,-94.68l-24.963,0c-1.349,37.557 -4.498,59.372 -37.782,72.416l0,-58.248Zm105.925,54.874c-3.374,0 -3.823,-0.674 -3.823,-7.196l-0,-61.621l-24.739,-0l0,61.846c0,22.714 4.498,30.135 24.064,30.135l15.068,0c16.192,0 22.039,-8.546 24.288,-41.83c-6.747,-1.799 -17.092,-5.847 -22.039,-9.895c-0.45,24.963 -1.35,28.561 -4.948,28.561l-7.871,0Z" style="fill-rule:nonzero;"/><path d="M5307.92,1791.07l1.125,29.011c5.847,-0.9 13.718,-1.574 18.216,-1.799c10.345,-0.675 29.686,-1.35 38.682,-1.799c-5.173,10.57 -11.695,25.862 -17.992,40.705c-45.203,2.024 -76.913,28.562 -76.913,63.42c-0,22.714 14.843,36.433 34.633,36.433c15.293,-0 26.088,-6.297 35.084,-19.791c7.871,-12.369 17.317,-34.858 25.413,-53.974c19.34,2.699 37.332,9.445 53.299,18.216c-7.421,20.465 -23.164,41.83 -57.122,56.448l23.838,19.566c30.136,-15.743 47.228,-35.533 57.123,-60.946c6.972,5.172 13.494,10.345 19.341,15.742l13.044,-31.26c-6.522,-4.498 -14.619,-9.67 -24.064,-15.067c2.249,-12.595 3.373,-26.538 4.273,-41.606l-29.461,-3.373c0.675,6.747 0.675,15.742 -0,24.513c-0.225,2.474 -0.45,4.948 -0.675,7.647c-14.618,-6.297 -31.26,-11.695 -48.801,-14.394c8.096,-19.115 16.642,-38.681 22.489,-48.352c1.799,-3.148 4.498,-6.072 7.646,-9.445l-17.991,-13.943c-3.823,1.574 -9.671,2.923 -15.293,3.148c-10.57,0.9 -34.409,2.024 -47.227,2.024c-4.948,0 -12.594,-0.45 -18.667,-1.124Zm-10.57,125.265c0,-14.168 14.169,-29.461 39.357,-33.284c-6.297,14.168 -12.369,28.336 -18.217,36.657c-4.048,5.623 -7.196,7.872 -11.694,7.872c-5.173,-0 -9.446,-3.823 -9.446,-11.245Z" style="fill-rule:nonzero;"/><path d="M5604.33,1942.88l0,-77.813l79.387,0l0,-27.212l-79.387,0l0,-64.319l-28.786,0l-0,169.344l-80.512,0l0,26.988l204.428,-0l-0,-26.988l-95.13,0Z" style="fill-rule:nonzero;"/><path d="M5878.25,1787.03l-32.385,-0c0.9,3.598 2.024,10.12 2.474,15.517c0.45,6.072 0.9,17.992 1.125,30.361c-7.872,0.225 -15.743,0.45 -23.164,0.45c-12.145,-0 -23.164,-0.675 -34.184,-2.249l-0,28.336c11.244,0.675 24.963,1.349 34.858,1.349c7.422,0 15.293,0 22.939,-0.224l0,7.871c0,38.007 -3.823,58.022 -20.915,76.014c-6.297,6.971 -17.541,14.168 -26.312,17.991l26.087,20.465c44.754,-28.561 48.802,-61.171 48.802,-114.245l0,-9.221c13.494,-0.899 25.863,-1.799 35.533,-2.923l0.225,-29.237c-9.895,1.8 -22.489,3.149 -35.983,4.273c0,-12.594 0,-24.288 0.225,-29.011c0,-5.172 0.225,-10.57 0.675,-15.517Zm-109.298,3.823l-33.284,-3.149c-0.225,5.623 -0.45,13.269 -1.35,19.341c-2.923,18.441 -7.421,53.075 -7.421,89.957c-0,27.887 7.871,59.372 12.819,72.866l25.188,-2.474c-0.225,-3.149 -0.45,-6.972 -0.675,-9.446c0,-2.474 0.675,-7.421 1.349,-11.02c2.924,-12.594 8.771,-35.308 15.518,-54.648l-14.168,-8.996c-3.598,8.096 -7.871,19.116 -10.795,26.087c-6.072,-27.886 2.024,-75.114 7.646,-100.077c0.9,-4.723 3.374,-12.819 5.173,-18.441Zm127.064,-11.695l-15.292,4.723c4.498,9.221 8.546,22.265 11.694,31.935l15.518,-5.173c-2.474,-8.546 -7.647,-22.489 -11.92,-31.485Zm23.164,-7.196l-15.292,4.947c4.497,8.996 8.995,21.815 12.369,31.485l15.292,-4.947c-2.698,-8.546 -8.096,-22.489 -12.369,-31.485Z" style="fill-rule:nonzero;"/><path d="M5998.34,1935.9c-0,-7.647 8.77,-13.944 24.738,-13.944c6.297,0 12.369,0.675 18.441,1.575c0.225,4.048 0.225,7.196 0.225,9.67c-0,13.044 -7.871,16.417 -19.791,16.417c-15.517,0 -23.613,-5.172 -23.613,-13.718Zm70.391,-156.526l-30.36,0c0.899,4.273 1.349,11.245 1.349,15.518l-0,10.57l-8.771,-0c-13.718,-0 -39.356,-2.249 -55.548,-4.948l0.674,25.638c14.843,2.024 40.931,4.048 55.099,4.048l8.321,0c-0.225,7.646 -0.225,15.743 -0.225,23.164l-10.795,0c-11.919,0 -39.581,-1.574 -54.199,-4.273l0.225,26.537c14.843,1.8 40.481,2.924 53.525,2.924l11.694,0c0.225,6.747 0.45,13.943 0.9,20.915c-4.498,-0.45 -9.221,-0.675 -13.944,-0.675c-34.633,0 -55.548,15.968 -55.548,38.682c-0,23.839 18.891,37.557 54.873,37.557c29.686,0 44.304,-14.843 44.304,-33.959c0,-2.474 0,-5.172 -0.225,-8.321c17.992,8.096 33.285,20.016 45.429,31.26l16.192,-25.188c-13.044,-10.795 -34.633,-25.862 -62.97,-33.958c-0.675,-8.996 -1.124,-18.217 -1.574,-26.763c21.59,-0.674 39.131,-2.249 59.372,-4.498l0.224,-26.537c-18.216,2.474 -37.332,4.273 -60.046,5.397l0,-23.164c21.815,-1.124 42.28,-3.148 57.123,-4.947l0.225,-25.863c-19.791,3.374 -38.457,5.173 -56.898,6.072c-0,-3.598 -0,-6.971 0.225,-9.22c0.225,-5.848 0.674,-11.47 1.349,-15.968Z" style="fill-rule:nonzero;"/><path d="M6306.22,1780.05l-32.609,-0c0.674,2.699 1.574,10.345 2.248,19.566c0.225,1.799 0.225,4.048 0.45,6.971c-30.585,0.45 -71.516,1.35 -97.153,1.35l0.674,27.212c27.662,-1.575 62.745,-2.924 96.704,-3.374c0.225,4.948 0.225,10.12 0.225,15.068c-2.924,-0.45 -5.847,-0.675 -8.996,-0.675c-24.513,0 -44.978,16.643 -44.978,42.055c-0,27.437 21.365,41.381 38.681,41.381c3.599,-0 6.972,-0.45 10.121,-1.125c-12.37,13.494 -32.16,20.915 -54.874,25.638l24.063,23.839c54.874,-15.293 71.966,-52.625 71.966,-81.861c-0,-11.695 -2.699,-22.265 -8.096,-30.811c-0,-9.895 -0.225,-22.264 -0.225,-33.734c30.585,0 51.5,0.45 64.994,1.125l0.225,-26.537c-11.695,-0.225 -42.505,0.224 -65.219,0.224c0.225,-2.698 0.225,-5.172 0.225,-6.971c0.225,-3.599 1.124,-15.743 1.574,-19.341Zm-56.448,107.724c-0,-11.92 8.546,-17.992 17.317,-17.992c6.072,0 11.469,2.699 14.618,7.871c3.148,19.791 -5.173,26.988 -14.618,26.988c-8.996,-0 -17.317,-6.522 -17.317,-16.867Z" style="fill-rule:nonzero;"/><path d="M6405.18,1905.54c-19.791,0 -36.208,16.417 -36.208,36.433c0,20.015 16.417,36.432 36.208,36.432c20.24,0 36.433,-16.417 36.433,-36.432c-0,-20.016 -16.193,-36.433 -36.433,-36.433Zm-0,56.673c-10.795,0 -20.016,-8.996 -20.016,-20.24c0,-11.245 9.221,-20.241 20.016,-20.241c11.245,0 20.24,8.996 20.24,20.241c0,11.244 -8.995,20.24 -20.24,20.24Z" style="fill-rule:nonzero;"/><rect x="6637.71" y="1871.36" width="224.893" height="8.996" style="fill-rule:nonzero;"/><rect x="6862.61" y="1871.36" width="224.893" height="8.996" style="fill-rule:nonzero;"/></g><defs><radialGradient id="_Radial2" cx="0" cy="0" r="1" gradientUnits="userSpaceOnUse" gradientTransform="matrix(1221.07,0,0,1221.07,938.438,781.251)"><stop offset="0" style="stop-color:#eeeae2;stop-opacity:1"/><stop offset="0.03" style="stop-color:#ede9e1;stop-opacity:1"/><stop offset="0.15" style="stop-color:#ede9e0;stop-opacity:1"/><stop offset="0.18" style="stop-color:#ede8e0;stop-opacity:1"/><stop offset="0.21" style="stop-color:#ece8df;stop-opacity:1"/><stop offset="0.26" style="stop-color:#ece7de;stop-opacity:1"/><stop offset="0.28" style="stop-color:#ebe7de;stop-opacity:1"/><stop offset="0.31" style="stop-color:#ebe6dd;stop-opacity:1"/><stop offset="0.33" style="stop-color:#ebe6dc;stop-opacity:1"/><stop offset="0.36" style="stop-color:#eae5dc;stop-opacity:1"/><stop offset="0.38" style="stop-color:#eae4db;stop-opacity:1"/><stop offset="0.41" style="stop-color:#e9e4da;stop-opacity:1"/><stop offset="0.51" style="stop-color:#e7e1d6;stop-opacity:1"/><stop offset="0.59" style="stop-color:#e5ded3;stop-opacity:1"/><stop offset="0.62" style="stop-color:#e5ddd1;stop-opacity:1"/><stop offset="0.69" style="stop-color:#e2dacd;stop-opacity:1"/><stop offset="0.79" style="stop-color:#dfd6c7;stop-opacity:1"/><stop offset="0.85" style="stop-color:#ddd4c4;stop-opacity:1"/><stop offset="0.87" style="stop-color:#dcd2c3;stop-opacity:1"/><stop offset="0.95" style="stop-color:#dacebd;stop-opacity:1"/><stop offset="1" style="stop-color:#d8ccba;stop-opacity:1"/></radialGradient></defs></svg>