<?xml version="1.0" encoding="UTF-8" standalone="no"?>
<!DOCTYPE svg PUBLIC "-//W3C//DTD SVG 1.1//EN" "http://www.w3.org/Graphics/SVG/1.1/DTD/svg11.dtd">
<svg width="100%" height="100%" viewBox="0 0 800 500" version="1.1" xmlns="http://www.w3.org/2000/svg" xmlns:xlink="http://www.w3.org/1999/xlink" xml:space="preserve" xmlns:serif="http://www.serif.com/" style="fill-rule:evenodd;clip-rule:evenodd;stroke-linejoin:round;stroke-miterlimit:2;">
    <g transform="matrix(1.70176,0,0,1.70176,155.696,-103.523)">
        <path d="M236.54,132.586C236.045,134.125 235.93,135.761 236.205,137.354C236.279,138.157 236.41,138.954 236.595,139.739C238.206,144.495 239.495,148.324 240.935,150.687C240.935,150.687 237.476,152.821 225.476,156.599C213.476,160.377 209.399,154.717 209.399,154.717C209.399,154.717 206.866,150.371 205.992,148.94C205.158,147.575 204.384,146.607 204.212,146.351C203.738,145.644 202.802,145.396 202.04,145.777C198.863,147.386 193.564,147.966 189.477,147.367C186.974,146.972 184.72,145.62 183.193,143.598C180.788,140.698 178.743,134.76 178.035,132.076C177.477,130.928 176.646,129.935 175.616,129.182C173.982,128.021 171.601,127.347 172.181,124.62C172.441,123.597 173.033,122.69 173.864,122.04C177.938,118.603 176.684,111.601 175.79,106.554C175.083,103.867 174.672,101.111 174.565,98.335C174.458,95.559 172.365,83.562 193.106,87.414C213.847,91.266 231.624,110.229 235.18,118.525C238.736,126.821 236.54,132.586 236.54,132.586Z" style="fill:white;fill-rule:nonzero;"/>
        <path d="M247.381,102.393C247.543,99.931 247.403,97.459 246.963,95.031C245.952,90.169 244.963,86.454 241.741,81.753C239.681,78.461 236.979,75.616 233.797,73.389L227.174,68.913C222.474,64.801 213.6,62.321 204.527,63.543C194.403,64.906 171.772,71.558 173.211,98.554L178.187,95.59L186.132,96.09C191.743,96.237 197.186,98.04 201.776,101.27C205.876,103.94 208.225,110.434 211.349,110.261C211.857,108.55 212.911,107.05 214.349,105.992C215.516,105.182 216.998,104.965 218.349,105.406C220.332,106.146 221.307,108.398 221.614,110.492C222.046,113.672 221.448,116.908 219.908,119.724C223.965,123.952 229.783,129.824 236.474,132.824C237.286,129.814 239.126,126.856 240.465,124.257C241.516,122.136 243.44,118.432 244.331,116.136C246.045,111.738 247.073,107.103 247.381,102.393Z" style="fill:rgb(122,116,115);fill-rule:nonzero;"/>
        <path d="M219.468,122.724C223.868,127.224 228.651,131.624 234.33,134.461C234.698,134.676 235.116,134.789 235.541,134.789C236.858,134.789 237.942,133.705 237.942,132.388C237.942,131.536 237.489,130.746 236.753,130.316C235.353,129.615 234.001,128.822 232.706,127.942C232.055,127.502 231.417,127.044 230.79,126.569C230.746,126.536 230.337,126.218 230.59,126.416L230.203,126.11C229.883,125.854 229.566,125.595 229.251,125.332C227.022,123.441 224.89,121.438 222.863,119.332C222.414,118.891 221.809,118.643 221.18,118.643C219.863,118.643 218.78,119.726 218.78,121.043C218.78,121.672 219.028,122.277 219.469,122.726L219.468,122.724Z" style="fill:rgb(33,23,21);fill-rule:nonzero;"/>
        <path d="M186.132,98.493C191.366,98.671 196.434,100.39 200.696,103.434C204.235,105.92 205.613,110.901 209.856,112.462C211.124,112.8 212.448,112.048 212.808,110.786C213.13,109.519 212.385,108.206 211.132,107.833C211.599,108.005 211.02,107.758 210.938,107.701C210.613,107.472 210.96,107.741 210.765,107.571C210.399,107.242 210.055,106.889 209.736,106.514C209.044,105.714 208.425,104.863 207.781,104.028C206.273,101.939 204.395,100.142 202.241,98.728C197.424,95.628 191.857,93.89 186.132,93.697C183.042,93.613 183.044,98.413 186.132,98.497L186.132,98.493Z" style="fill:rgb(33,23,21);fill-rule:nonzero;"/>
        <path d="M174.8,100.4L180.541,96.978C181.074,96.655 181.467,96.143 181.641,95.544C181.698,95.336 181.728,95.121 181.728,94.905C181.728,93.589 180.644,92.505 179.328,92.505C178.901,92.505 178.483,92.619 178.115,92.834L172.374,96.255C171.841,96.579 171.449,97.091 171.274,97.69C171.217,97.898 171.187,98.113 171.187,98.329C171.187,99.645 172.271,100.729 173.587,100.729C174.014,100.729 174.432,100.615 174.8,100.4Z" style="fill:rgb(33,23,21);fill-rule:nonzero;"/>
        <path d="M232.586,75.461C237.013,78.644 240.456,83.012 242.516,88.061C244.587,93.077 245.394,98.526 244.864,103.927C244.267,109.323 242.694,114.565 240.221,119.398C239.138,121.598 238.008,123.766 236.856,125.929C235.272,128.585 234.209,131.518 233.723,134.571C233.352,137.913 234.523,141.176 235.613,144.271C236.439,146.915 237.528,149.47 238.863,151.897C240.446,154.546 244.598,152.135 243.008,149.475C241.871,147.413 240.944,145.242 240.242,142.995C239.329,140.395 238.156,137.628 238.494,134.807C238.834,131.969 240.463,129.346 241.794,126.883C242.994,124.665 244.114,122.397 245.194,120.119C250.105,109.727 251.526,97.619 247.149,86.783C244.705,80.551 240.485,75.172 235.014,71.315C232.434,69.6 230.028,73.756 232.591,75.46L232.586,75.461Z" style="fill:rgb(33,23,21);fill-rule:nonzero;"/>
        <path d="M228.871,67.216C219.901,59.532 206.464,59.636 195.731,63.072C187.037,65.856 178.968,71.217 174.613,79.446C171.535,85.623 170.237,92.537 170.864,99.41C170.894,100.715 171.959,101.78 173.264,101.81C174.576,101.799 175.653,100.722 175.664,99.41C175.304,94.035 175.831,88.224 177.981,83.457C179.729,79.522 182.427,76.082 185.831,73.446C186.114,73.22 186.252,73.116 186.767,72.746C187.181,72.451 187.601,72.166 188.028,71.891C188.866,71.351 189.726,70.846 190.607,70.377C191.461,69.921 192.332,69.498 193.219,69.107C193.339,69.054 193.964,68.79 193.549,68.962C193.749,68.879 193.949,68.798 194.149,68.718C194.61,68.536 195.074,68.361 195.54,68.194C198.518,67.12 201.599,66.356 204.734,65.913C211.419,64.986 220.034,65.948 225.476,70.606C226.422,71.508 227.93,71.508 228.876,70.606C229.796,69.67 229.796,68.148 228.876,67.212L228.871,67.216Z" style="fill:rgb(33,23,21);fill-rule:nonzero;"/>
        <path d="M213.829,110.44C214.194,109.514 214.79,108.697 215.56,108.067C215.876,107.853 216.226,107.692 216.594,107.591C216.625,107.591 217.238,107.574 217.141,107.561C217.241,107.574 217.885,107.835 217.616,107.697C218.172,108.037 218.593,108.56 218.808,109.175C219.168,110.094 219.354,111.073 219.354,112.06C219.48,116.204 217.593,120.162 214.295,122.674C213.188,123.362 212.807,124.815 213.434,125.958C214.105,127.087 215.579,127.474 216.718,126.819C222.064,123.001 224.857,116.506 223.95,110C223.5,106.9 221.688,103.669 218.417,102.934C214.609,102.078 211.237,104.734 209.685,108.019C209.057,109.162 209.438,110.615 210.546,111.302C211.685,111.955 213.157,111.569 213.829,110.441L213.829,110.44Z" style="fill:rgb(33,23,21);fill-rule:nonzero;"/>
        <path d="M172.165,98.335C172.302,101.908 173.165,105.29 173.755,108.792C174.323,111.356 174.451,113.999 174.134,116.606C173.992,117.617 173.626,118.583 173.061,119.433C172.602,119.947 172.112,120.433 171.595,120.888C170.854,121.658 170.298,122.586 169.969,123.603C169.475,125.107 169.657,126.754 170.469,128.114C171.326,129.245 172.431,130.164 173.7,130.8C174.581,131.295 175.301,132.034 175.774,132.927C176.274,134.072 176.518,135.39 176.951,136.57C177.878,139.421 179.22,142.12 180.933,144.58C182.809,147.235 185.641,149.063 188.833,149.68C192.225,150.202 195.685,150.081 199.033,149.324C199.747,149.169 200.451,148.971 201.141,148.733C201.462,148.621 201.774,148.493 202.088,148.363C202.381,148.245 202.671,148.12 202.958,147.988C203.014,147.864 202.891,147.857 202.587,147.966C202.27,147.744 202.266,147.594 202.303,147.798C202.352,148.063 202.821,148.504 202.974,148.723C203.411,149.346 203.816,149.989 204.208,150.641C205.262,152.393 206.29,154.161 207.319,155.928C208.874,158.595 213.024,156.182 211.464,153.505C210.554,151.945 209.639,150.388 208.72,148.833C207.513,146.803 206.085,143.796 203.567,143.286C202.045,142.978 200.906,143.769 199.532,144.217C198.029,144.699 196.475,145.002 194.901,145.117C192.24,145.317 189.182,145.409 186.891,143.829C184.6,142.249 183.307,139.561 182.254,137.046C181.76,135.868 181.331,134.659 180.938,133.446C180.638,132.198 180.162,131 179.525,129.886C178.639,128.573 177.476,127.47 176.118,126.656C175.623,126.389 175.147,126.088 174.693,125.756C174.727,125.785 174.467,125.335 174.493,125.629C174.386,124.367 175.737,123.674 176.449,122.829C177.387,121.704 178.082,120.397 178.491,118.99C180.528,112.168 177.22,105.145 176.958,98.337C176.839,95.258 172.038,95.243 172.158,98.337L172.165,98.335Z" style="fill:rgb(33,23,21);fill-rule:nonzero;"/>
        <path d="M250.163,282.727C249.748,262.606 253.796,244.955 255.526,225.273C256.683,212.117 256.415,199.051 254.132,181.042C252.371,167.158 249.424,160.219 241.859,149.051C240.362,147.284 238.026,146.451 235.749,146.872C228.921,148.709 211.866,154.584 213.393,154.144C211.631,154.833 208.649,156.231 207.271,156.92C206.678,161.513 207.123,165.513 204.752,174.994C202.382,187.294 201.395,197.282 199.715,208.624C197.345,224.624 199.015,239.792 191.715,257.217C188.345,265.259 186.234,276.943 188.848,278.383C191.148,280.443 193.708,282.193 196.462,283.589C211.725,292.288 228.238,298.584 245.419,302.254L250.163,282.727Z" style="fill:rgb(101,160,212);fill-rule:nonzero;"/>
        <path d="M203.805,287.51C201.322,286.255 198.874,284.948 196.462,283.589C195.209,282.889 193.95,282.174 192.738,281.399C165.588,287.599 141.352,293.57 109.493,300.328C102.16,301.883 97.376,309.139 95.419,314.028C91.706,323.538 88.734,333.32 86.53,343.288L139.03,343.288L139.03,338.944C166.482,338.473 179.862,338.473 209.64,338.251C218.712,338.183 228.184,338.918 236.529,335.362C244.874,331.806 251.456,321.382 250.023,312.425L247.623,307.116L245.423,302.251C230.962,299.192 216.968,294.235 203.805,287.51Z" style="fill:white;fill-rule:nonzero;"/>
        <path d="M82.881,248.689C88.913,248.689 135.03,248.754 138.121,248.754C138.121,247.112 138.081,245.823 138.081,244.254C138.089,243.796 137.936,243.349 137.649,242.992C137.305,242.641 136.852,242.416 136.364,242.356C123.308,240.368 94.752,237.923 82.752,237.294C82.752,238.043 82.872,248.025 82.881,248.689Z" style="fill:rgb(217,217,217);fill-rule:nonzero;"/>
        <path d="M183.225,281.124C166.29,285.042 149.377,289.061 132.416,292.867C127.826,293.897 123.233,294.912 118.637,295.912C116.187,296.445 113.736,296.973 111.284,297.496C109.154,297.864 107.075,298.484 105.092,299.344C98.535,302.461 94.764,309.026 92.271,315.521C88.988,324.377 86.297,333.441 84.216,342.653C83.501,345.653 88.128,346.937 88.844,343.929C90.688,335.827 92.982,327.835 95.714,319.988C97.842,314.066 100.308,307.741 106.13,304.233C107.673,303.353 109.357,302.744 111.106,302.433C113.497,301.924 115.887,301.411 118.275,300.894C122.757,299.924 127.235,298.939 131.71,297.938C140.185,296.044 148.652,294.109 157.11,292.132C166.243,290.009 175.374,287.882 184.502,285.751C187.511,285.051 186.237,280.426 183.226,281.122L183.225,281.124Z" style="fill:rgb(33,23,21);fill-rule:nonzero;"/>
        <path d="M247.71,313.066C248.704,319.752 244.61,326.841 239.49,330.848C232.813,336.071 223.29,335.91 215.255,335.869C196.804,335.776 178.342,336.021 159.891,336.169C149.768,336.253 139.646,336.378 129.523,336.544C126.438,336.597 126.428,341.397 129.523,341.344C148.215,341.025 166.908,340.908 185.601,340.802C195.561,340.746 205.521,340.622 215.481,340.667C224.348,340.708 234.453,340.562 241.881,335.018C248.994,329.706 253.674,320.75 252.341,311.787C251.984,310.523 250.658,309.769 249.389,310.11C248.139,310.487 247.396,311.797 247.713,313.063L247.71,313.066Z" style="fill:rgb(33,23,21);fill-rule:nonzero;"/>
        <path d="M82.881,251.089C89.681,251.089 96.484,251.097 103.291,251.112L130.707,251.146C133.178,251.146 135.65,251.149 138.121,251.154C139.43,251.135 140.502,250.063 140.521,248.754C140.515,246.103 141.176,242.347 138.585,240.67C137.016,239.656 134.557,239.681 132.75,239.442C128.837,238.924 124.913,238.483 120.988,238.07C112.121,237.137 103.244,236.337 94.356,235.67C90.491,235.37 86.623,235.097 82.756,234.893C81.445,234.908 80.371,235.982 80.356,237.293C80.365,241.093 80.434,244.893 80.485,248.693C80.527,251.779 85.327,251.788 85.285,248.693C85.234,244.893 85.165,241.093 85.156,237.293L82.756,239.693C98.109,240.505 113.484,241.907 128.747,243.74C130.599,243.962 132.347,244.183 133.936,244.407C134.341,244.464 134.745,244.522 135.15,244.583C135.304,244.614 135.459,244.637 135.615,244.652C135.77,244.673 135.923,244.704 136.074,244.746C135.903,244.681 135.774,244.538 135.726,244.361C135.559,244.322 135.686,244.661 135.687,244.942C135.687,245.382 135.696,245.822 135.702,246.261C135.713,247.093 135.723,247.924 135.725,248.761L138.125,246.361C132.021,246.361 125.917,246.354 119.814,246.34L91.814,246.305L82.885,246.296C79.792,246.288 79.787,251.088 82.881,251.089Z" style="fill:rgb(33,23,21);fill-rule:nonzero;"/>
        <path d="M59.078,217.692C56.098,180.492 50.692,132.204 47.065,96.328C43.946,96.551 39.516,97.36 36.013,97.74C39.672,133.799 45.413,182.062 48.343,219.092C51.448,218.835 58.923,217.708 59.078,217.692Z" style="fill:rgb(217,217,217);fill-rule:nonzero;"/>
        <path d="M61.478,217.692C60.213,201.929 58.704,186.185 57.129,170.45C55.493,154.114 53.77,137.787 52.062,121.459C51.186,113.083 50.319,104.706 49.462,96.328C49.443,95.019 48.371,93.947 47.062,93.928C43.362,94.213 39.701,94.928 36.01,95.34C34.825,95.473 33.467,96.34 33.61,97.74C35.182,113.221 36.886,128.689 38.557,144.159C40.329,160.559 42.083,176.959 43.657,193.372C44.481,201.939 45.257,210.512 45.936,219.092C45.952,220.402 47.026,221.476 48.336,221.492C50.615,221.292 52.884,220.97 55.149,220.657C56.129,220.524 57.109,220.385 58.088,220.241C58.449,220.189 58.81,220.141 59.171,220.084C59.45,220.042 60.246,219.943 59.071,220.092C60.372,220.052 61.431,218.993 61.471,217.692C61.463,216.378 60.385,215.3 59.071,215.292C55.451,215.751 51.962,216.38 48.336,216.692L50.736,219.092C49.491,203.368 47.936,187.668 46.312,171.98C44.612,155.635 42.82,139.3 41.061,122.962C40.16,114.557 39.278,106.15 38.413,97.74L36.013,100.14C39.703,99.728 43.361,99.013 47.065,98.728L44.665,96.328C46.227,111.764 47.865,127.192 49.476,142.628C51.186,159.04 52.876,175.456 54.413,191.885C55.22,200.485 55.975,209.089 56.678,217.696C56.71,219 57.774,220.064 59.078,220.096C60.392,220.086 61.47,219.006 61.478,217.692Z" style="fill:rgb(33,23,21);fill-rule:nonzero;"/>
        <path d="M38.084,180.619C35.797,194.627 33.173,208.583 30.638,222.548C29.961,226.274 29.285,230 28.611,233.727C28.302,235.434 27.994,237.141 27.687,238.849C27.266,240.5 27.007,242.188 26.915,243.889C26.963,245.976 27.885,247.95 29.456,249.325C31.141,250.665 33.272,251.318 35.418,251.153C39.669,251.153 43.92,251.151 48.17,251.146C55.62,251.141 63.069,251.136 70.518,251.129C73.607,251.129 73.612,246.329 70.518,246.329C64.451,246.329 58.382,246.334 52.309,246.343C48.21,246.347 44.11,246.35 40.009,246.352C38.078,246.352 36.065,246.517 34.142,246.352C32.956,246.27 31.968,245.391 31.748,244.223C31.531,242.966 32.088,241.389 32.315,240.129C32.602,238.529 32.89,236.929 33.18,235.329C33.83,231.733 34.482,228.138 35.135,224.543C36.5,217.03 37.858,209.515 39.211,202C40.411,195.3 41.617,188.608 42.711,181.893C43.021,180.628 42.28,179.323 41.035,178.941C39.766,178.602 38.442,179.354 38.082,180.617L38.084,180.619Z" style="fill:rgb(33,23,21);fill-rule:nonzero;"/>
        <path d="M252.563,282.727C252.299,268.742 254.298,254.927 256.12,241.098C257.728,228.893 258.897,216.707 258.501,204.384C258.292,197.884 257.745,191.392 257.001,184.93C256.47,178.866 255.381,172.864 253.747,167C252.158,162.029 249.953,157.276 247.183,152.853C245.645,150.341 244.15,147.363 241.619,145.732C239.446,144.357 236.774,144.006 234.319,144.772C229.819,146.037 225.371,147.52 220.935,148.998C218.992,149.646 217.052,150.303 215.115,150.97C214.068,151.235 213.053,151.611 212.085,152.09C210.962,152.765 210.577,154.234 211.224,155.373C211.65,156.112 212.443,156.567 213.296,156.562C213.542,156.544 213.787,156.508 214.028,156.453L212.752,151.824C211.362,152.376 209.992,152.982 208.634,153.61C207.362,154.198 205.37,154.764 204.954,156.276C204.585,158.288 204.406,160.33 204.419,162.376C203.97,168.51 202.349,174.428 201.33,180.476C200.183,187.281 199.312,194.125 198.386,200.962C197.457,207.824 196.511,214.637 196.014,221.548C195.692,228.089 195.007,234.607 193.963,241.072C193.313,244.636 192.414,248.15 191.273,251.589C190.195,254.811 188.761,257.896 187.737,261.137C186.826,263.966 186.143,266.862 185.695,269.8C185.249,272.157 185.179,274.571 185.488,276.95C185.915,279.443 187.766,280.762 189.637,282.16C192.562,284.21 195.638,286.037 198.837,287.626C213.262,295.436 228.732,301.14 244.775,304.562C247.79,305.186 249.075,300.562 246.051,299.933C232.799,297.15 219.943,292.738 207.774,286.799C204.761,285.339 201.789,283.798 198.859,282.176C196.016,280.733 193.334,278.993 190.859,276.984C190.349,276.54 189.484,275.842 190.444,276.73C190.343,276.618 190.267,276.486 190.222,276.342C190.303,276.842 190.322,276.593 190.286,276.442C190.242,276.255 190.191,276.07 190.15,275.882C190.007,275.22 190.178,276.382 190.119,275.656C190.078,275.149 190.065,274.641 190.074,274.133C190.161,271.796 190.491,269.474 191.059,267.205C192.437,261.187 195.174,255.673 196.859,249.755C198.54,243.523 199.63,237.146 200.114,230.709C200.668,224.539 200.925,218.344 201.638,212.188C202.371,205.86 203.353,199.546 204.221,193.233C204.706,189.706 205.221,186.183 205.8,182.67C206.434,178.833 207.293,175.064 208.039,171.252C208.97,166.493 209.06,161.708 209.662,156.918L208.473,158.991C210.291,158.091 212.135,157.206 214.022,156.457C215.267,156.074 216.008,154.77 215.699,153.504C215.334,152.245 214.014,151.496 212.746,151.828C212.518,151.892 212.355,151.88 213.29,151.766L215.362,152.954L214.501,156.237C213.739,156.715 214.137,156.393 214.555,156.237C215.048,156.059 215.542,155.888 216.037,155.717C217.645,155.159 219.256,154.61 220.871,154.071C224.833,152.741 228.804,151.433 232.802,150.217C233.623,149.968 234.446,149.723 235.271,149.488C235.904,149.224 236.586,149.103 237.271,149.132C239.9,149.458 241.071,152.152 242.326,154.146C245.014,158.254 247.188,162.676 248.801,167.313C250.409,172.583 251.488,178 252.022,183.484C252.789,189.895 253.37,196.331 253.632,202.784C253.979,214.361 253.361,225.947 251.784,237.421C249.884,252.481 247.465,267.492 247.752,282.721C247.81,285.806 252.61,285.821 252.552,282.721L252.563,282.727Z" style="fill:rgb(33,23,21);fill-rule:nonzero;"/>
        <path d="M102.307,222.57C102.407,222.409 102.507,222.258 102.607,222.119C105.007,218.851 106.53,216.176 109.507,213.419C112.334,210.732 116.1,209.25 120,209.29C123.237,209.515 126.385,210.448 129.222,212.023C133.275,214.308 138.911,217.589 145.113,220.793L149.156,221.75C148.925,226.427 148.73,231.879 148.748,236.792C144.326,237.634 139.223,238.614 139.223,238.614C134.223,239.523 131.287,239.03 126.73,236.245C124.33,234.779 122.035,233.335 119.424,235.145C117.804,236.267 117.433,237.162 115.871,238.821C114.953,239.795 114.043,240.062 112.319,239.397C111.538,239.097 111.236,237.633 111.441,236.429C111.64,235.248 111.907,234.079 112.241,232.929L110.241,233.795C108.855,234.804 106.992,234.888 105.521,234.007C104.136,232.84 104.554,230.13 106.176,228.007L104.593,228.152C103.253,228.233 102.007,227.434 101.522,226.182C101.321,224.923 101.601,223.632 102.307,222.57Z" style="fill:white;fill-rule:nonzero;"/>
        <path d="M110.521,230.354C109.521,233.403 107.352,239.117 110.883,241.342C112.555,242.366 114.654,242.42 116.377,241.485C117.928,240.561 118.805,238.858 120.099,237.654C121.375,236.467 122.434,236.573 123.905,237.369C125.633,238.305 127.236,239.381 129.057,240.147C132.589,241.633 136.137,241.582 139.857,240.928C141.12,240.569 141.872,239.244 141.533,237.976C141.159,236.724 139.847,235.98 138.581,236.3C136.005,236.876 133.316,236.679 130.852,235.734C127.785,234.441 125.065,231.649 121.511,231.926C119.69,232.13 117.993,232.955 116.706,234.26C116.235,234.721 115.795,235.211 115.386,235.727C114.991,236.336 114.506,236.881 113.948,237.345C113.973,237.332 114.339,237.321 113.948,237.357C113.881,237.379 113.808,237.37 113.748,237.335C113.297,237.145 113.244,237.178 113.588,237.435C114.13,237.217 113.598,238.014 113.779,237.359C113.854,237.084 113.818,236.707 113.869,236.409C114.175,234.788 114.602,233.191 115.147,231.634C116.115,228.693 111.482,227.434 110.519,230.358L110.521,230.354Z" style="fill:rgb(33,23,21);fill-rule:nonzero;"/>
        <path d="M146.32,218.721C142.162,216.567 138.072,214.289 134.001,211.977C130.257,209.852 126.601,207.788 122.271,207.141C117.894,206.448 113.417,207.514 109.822,210.105C106.177,212.723 103.749,216.417 101.178,220.016C99.789,221.96 98.502,224.345 99.204,226.822C99.967,229.118 102.171,230.645 104.589,230.554C105.894,230.525 106.96,229.459 106.989,228.154C106.978,226.842 105.901,225.765 104.589,225.754C104.398,225.766 104.018,225.821 103.846,225.51C103.739,225.31 103.953,224.644 104.075,224.352C104.863,222.886 105.801,221.506 106.875,220.235C108.808,217.492 110.961,214.815 113.949,213.178C116.814,211.642 120.174,211.303 123.289,212.234C126.56,213.078 129.354,214.86 132.263,216.509C136.108,218.689 139.974,220.832 143.9,222.866C146.639,224.284 149.069,220.144 146.323,218.721L146.32,218.721Z" style="fill:rgb(33,23,21);fill-rule:nonzero;"/>
        <path d="M111.468,217.721C109.573,219.668 107.803,221.733 106.168,223.904C104.736,225.794 103.03,227.821 102.497,230.188C101.903,232.823 102.708,235.599 105.397,236.631C107.618,237.467 110.127,237.029 111.934,235.49C112.375,235.041 112.623,234.436 112.623,233.807C112.623,232.49 111.54,231.407 110.223,231.407C109.594,231.407 108.989,231.655 108.54,232.096C108.212,232.417 108.966,231.821 108.578,232.063C108.172,232.316 109.059,231.952 108.557,232.075C108.386,232.117 108.217,232.164 108.046,232.204C107.495,232.334 108.53,232.213 107.953,232.204L107.395,232.204C106.908,232.218 107.807,232.342 107.316,232.204C107.181,232.157 107.043,232.12 106.903,232.092C106.691,232.062 107.355,232.331 106.903,232.064C106.756,231.967 106.818,232.011 107.089,232.198C106.947,232.041 106.94,232.038 107.067,232.19C107.194,232.342 107.197,232.332 107.075,232.159C107.186,232.459 107.213,232.519 107.154,232.347C107.136,232.21 107.077,232.063 107.046,231.926C107.181,232.521 107.076,231.999 107.079,231.826C107.084,231.592 107.179,231.277 107.079,231.67C107.13,231.463 107.169,231.257 107.231,231.052C107.241,231.018 107.484,230.364 107.302,230.788C107.396,230.575 107.5,230.366 107.616,230.164C108.104,229.354 108.636,228.572 109.21,227.82C109.477,227.452 109.743,227.085 110.01,226.72C110.157,226.52 110.305,226.323 110.456,226.129C110.233,226.42 110.646,225.886 110.689,225.829C111.994,224.184 113.385,222.609 114.856,221.111C115.297,220.662 115.545,220.057 115.545,219.428C115.545,218.111 114.462,217.028 113.145,217.028C112.516,217.028 111.911,217.276 111.462,217.717L111.468,217.721Z" style="fill:rgb(33,23,21);fill-rule:nonzero;"/>
        <path d="M112.019,235.251C112.553,234.375 113.119,233.519 113.73,232.693C113.79,232.611 113.851,232.53 113.911,232.449C113.937,232.415 114.245,232.013 113.999,232.331C113.753,232.649 114.039,232.283 114.091,232.217C114.169,232.117 114.248,232.017 114.327,231.923C114.644,231.533 114.97,231.151 115.304,230.777C116.647,229.282 118.109,227.898 119.677,226.64C120.127,226.189 120.379,225.577 120.377,224.94C120.374,224.304 120.123,223.694 119.677,223.24C119.225,222.792 118.614,222.54 117.977,222.54C117.347,222.572 116.747,222.819 116.277,223.24C112.946,225.929 110.102,229.171 107.869,232.823C107.654,233.19 107.541,233.608 107.541,234.034C107.541,235.351 108.625,236.434 109.942,236.434C110.794,236.434 111.584,235.981 112.014,235.245L112.019,235.251Z" style="fill:rgb(33,23,21);fill-rule:nonzero;"/>
        <path d="M197.8,201.386C196.488,205.512 194.893,209.542 193.026,213.448C177.735,214.791 163.295,215.978 148.847,217.148C148.172,217.2 147.645,217.771 147.647,218.448C147.829,224.627 147.781,234.312 148.688,241.591C148.772,242.214 149.31,242.685 149.939,242.684C169.133,242.817 183.987,242.149 202.095,239.252C207.454,238.55 212.49,236.284 216.57,232.738C218.597,230.558 220.212,228.029 221.336,225.273C227.643,211.865 229.573,206.593 232.723,192.26C233.623,186.698 234.411,181.111 232.904,175.709C230.933,171.098 226.768,167.776 221.834,166.88C215.484,165.841 210.476,168.901 207.134,173.746C204.924,177.07 203.343,180.771 202.469,184.666C200.728,190.992 199.466,196.2 197.8,201.386Z" style="fill:rgb(101,160,212);fill-rule:nonzero;"/>
        <path d="M195.485,200.748C194.226,204.672 192.712,208.51 190.954,212.237L193.026,211.048C182.737,211.951 172.445,212.823 162.152,213.665C159.582,213.877 157.012,214.088 154.441,214.298L150.941,214.583C149.658,214.683 148.153,214.604 147.015,215.293C144.888,216.582 145.262,219.034 145.305,221.149C145.346,223.213 145.379,225.277 145.428,227.34C145.534,231.784 145.681,236.24 146.171,240.662C146.151,241.813 146.514,242.939 147.203,243.862C148.116,244.769 149.387,245.224 150.668,245.102C153.201,245.117 155.738,245.117 158.278,245.102C167.703,245.03 177.127,244.651 186.507,243.708C191.39,243.218 196.259,242.585 201.107,241.837C203.086,241.602 205.046,241.223 206.97,240.702C209.018,240.068 211.002,239.242 212.894,238.233C216.807,236.221 220.013,233.058 222.077,229.172C224.145,225.315 225.896,221.233 227.608,217.206C230.552,210.139 232.854,202.821 234.486,195.341C235.784,190.311 236.307,185.113 236.039,179.926C235.944,177.464 235.298,175.055 234.15,172.875C233.116,171.098 231.77,169.523 230.176,168.225C223.526,162.713 213.637,163.236 207.605,169.418C201.087,176.03 199.705,185.874 197.341,194.451C196.758,196.564 196.141,198.668 195.479,200.751C194.538,203.701 199.171,204.963 200.108,202.027C201.435,197.867 202.537,193.641 203.663,189.427C204.815,185.11 205.79,180.741 208.031,176.827C209.731,173.859 212.131,171.057 215.41,169.818C218.781,168.583 222.538,168.956 225.601,170.828C227.104,171.729 228.403,172.934 229.415,174.365C230.558,176.087 231.196,178.095 231.257,180.16C231.477,184.983 230.971,189.812 229.757,194.485C228.232,201.539 226.077,208.442 223.318,215.111C221.646,219.027 219.937,222.993 217.927,226.748C216.091,230.192 213.161,232.929 209.601,234.529C205.971,236.313 202.18,236.861 198.226,237.449C193.759,238.116 189.276,238.657 184.776,239.074C175.734,239.92 166.655,240.249 157.576,240.305C156.398,240.313 155.22,240.316 154.043,240.315L152.121,240.315C151.474,240.233 150.819,240.229 150.171,240.305C149.371,240.526 150.93,241.747 151.008,241.05C151.006,240.794 150.977,240.54 150.924,240.29C150.876,239.836 150.832,239.382 150.791,238.928C150.694,237.849 150.614,236.769 150.549,235.689C150.29,231.464 150.213,227.23 150.134,222.999C150.116,222.036 150.097,221.073 150.076,220.11C150.096,219.722 150.087,219.333 150.048,218.946C149.96,218.481 150.292,218.094 149.669,218.996C149.102,219.817 149.54,219.506 150.236,219.45L157.465,218.86C162.32,218.46 167.175,218.06 172.03,217.66C176.985,217.245 181.94,216.824 186.894,216.397L190.557,216.079C191.844,215.966 193.734,216.139 194.713,215.16C195.455,214.154 196.021,213.029 196.388,211.834C196.898,210.67 197.388,209.498 197.859,208.317C198.681,206.251 199.42,204.155 200.104,202.039C201.066,199.078 196.433,197.816 195.485,200.748Z" style="fill:rgb(33,23,21);fill-rule:nonzero;"/>
        <path d="M179.823,137.756C181.637,137.651 183.411,137.179 185.038,136.371C185.613,136.061 186.154,135.69 186.651,135.266C187.028,134.935 187.364,134.56 187.651,134.148C187.976,133.589 188.064,132.922 187.893,132.298C187.722,131.698 187.329,131.184 186.793,130.864C186.234,130.54 185.567,130.453 184.943,130.622L184.37,130.864C184.014,131.073 183.718,131.369 183.509,131.725L183.492,131.748L183.867,131.262C183.655,131.524 183.412,131.759 183.143,131.962L183.628,131.587C183.135,131.958 182.598,132.264 182.028,132.499L182.602,132.257C181.715,132.613 180.787,132.853 179.839,132.973L180.477,132.887C180.261,132.914 180.045,132.937 179.828,132.953C179.195,132.968 178.589,133.218 178.128,133.653C177.197,134.584 177.197,136.116 178.128,137.047C178.577,137.5 179.19,137.753 179.828,137.747L179.823,137.756Z" style="fill:rgb(33,23,21);fill-rule:nonzero;"/>
        <path d="M182.036,114.058C181.823,115.602 182.607,118.958 185.308,118.85C188.818,118.297 188.397,114.155 186.929,112.4C185.726,110.963 182.782,110.735 182.036,114.058Z" style="fill:rgb(33,23,21);fill-rule:nonzero;"/>
        <path d="M284.365,170.519C283.476,175.366 281.115,182.57 280.308,191.142C277.419,221.809 269.937,275.877 266.382,313.803C265.197,325.654 264.173,337.567 262.082,349.103L151.608,349.103C151.608,347.071 151.616,344.403 151.62,341.254C178.442,340.932 225.814,339.99 242.061,339.596C245.739,305.446 261.461,196.131 263.061,172.252C263.526,165.888 273.294,165.09 279.58,164.036C284.668,163.179 285.253,165.671 284.365,170.519Z" style="fill:white;fill-rule:nonzero;"/>
        <path d="M137.684,343.758C150.352,343.758 163.021,343.505 175.684,343.294C191.573,343.027 207.462,342.729 223.351,342.4C229.595,342.271 235.839,342.134 242.083,341.987C245.166,341.912 245.178,337.111 242.083,337.187C229.236,337.5 216.388,337.769 203.54,337.994C187.702,338.297 171.863,338.563 156.023,338.794C149.909,338.875 143.795,338.958 137.681,338.959C134.592,338.959 134.587,343.759 137.681,343.759L137.684,343.758Z" style="fill:rgb(33,23,21);fill-rule:nonzero;"/>
        <path d="M140.346,352.325C140.346,343.755 140.486,294.759 140.556,265.889C145.07,265.867 148.893,265.845 151.818,265.824C151.739,294.993 151.606,343.951 151.606,352.324L140.346,352.325Z" style="fill:white;fill-rule:nonzero;"/>
        <path d="M154.005,352.328C154.005,343.81 154.04,335.293 154.063,326.775C154.1,313.375 154.138,299.975 154.178,286.575C154.197,279.999 154.216,273.423 154.233,266.846C154.241,263.757 149.441,263.753 149.433,266.846C149.399,279.363 149.363,291.88 149.326,304.397C149.291,316.676 149.258,328.954 149.226,341.233C149.217,344.931 149.211,348.629 149.206,352.328C149.206,355.416 154.006,355.421 154.006,352.328L154.005,352.328Z" style="fill:rgb(33,23,21);fill-rule:nonzero;"/>
        <path d="M142.745,352.328C142.745,343.81 142.78,335.293 142.804,326.775C142.84,313.375 142.878,299.975 142.918,286.575C142.937,279.999 142.956,273.423 142.974,266.846C142.982,263.757 138.182,263.753 138.174,266.846C138.14,279.363 138.104,291.88 138.067,304.397C138.032,316.676 137.998,328.954 137.967,341.233C137.958,344.931 137.951,348.629 137.946,352.328C137.946,355.416 142.746,355.421 142.746,352.328L142.745,352.328Z" style="fill:rgb(33,23,21);fill-rule:nonzero;"/>
        <path d="M244.486,339.365C245.404,330.885 246.486,322.422 247.57,313.965C249.044,302.459 250.553,290.957 252.096,279.459C253.768,266.88 255.439,254.301 257.11,241.722C258.654,230.027 260.168,218.327 261.653,206.622C262.763,197.77 263.862,188.913 264.771,180.037C264.927,178.507 265.077,176.976 265.212,175.444C265.269,174.798 265.323,174.152 265.374,173.506C265.382,172.865 265.464,172.228 265.617,171.606C265.743,171.169 265.692,171.373 265.642,171.488C265.709,171.34 265.785,171.196 265.869,171.057C265.945,170.915 266.034,170.781 266.136,170.657C266.484,170.216 266.916,169.848 267.407,169.574C268.548,168.886 269.786,168.376 271.08,168.061C274.09,167.305 277.143,166.732 280.222,166.348C280.636,166.284 280.122,166.326 280.652,166.298C280.896,166.285 281.14,166.267 281.385,166.269C281.512,166.269 282.144,166.324 281.796,166.275C281.448,166.226 282.135,166.375 282.253,166.406C281.813,166.289 281.977,166.406 282.243,166.433C282.289,166.433 281.859,166.099 282.208,166.426C282.459,166.661 281.789,166.026 282.208,166.465C282.336,166.6 282.159,166.045 282.217,166.535C282.23,166.642 282.35,167.196 282.293,166.816C282.232,166.416 282.302,167.061 282.306,167.164C282.314,167.68 282.291,168.196 282.236,168.709C282.228,168.798 282.183,169.174 282.242,168.72C282.222,168.871 282.199,169.02 282.174,169.173C282.128,169.45 282.081,169.728 282.03,170.004C281.909,170.654 281.77,171.304 281.63,171.944C280.886,175.257 280.01,178.537 279.33,181.864C278.59,185.64 278.05,189.452 277.712,193.284C276.334,207.407 274.619,221.497 272.919,235.584C270.958,251.834 268.956,268.084 267.102,284.343C265.202,301.038 263.845,317.797 261.843,334.479C261.281,339.159 260.613,343.824 259.778,348.462C259.466,349.728 260.208,351.035 261.455,351.415C262.724,351.753 264.048,351.001 264.407,349.738C267.618,331.885 268.684,313.685 270.64,295.667C272.433,279.137 274.44,262.63 276.44,246.124C278.279,230.955 280.15,215.788 281.762,200.592C282.507,193.572 283.102,186.622 284.707,179.727C285.407,176.719 286.26,173.727 286.769,170.681C287.132,168.504 287.497,165.93 286.292,163.928C285.037,161.841 282.592,161.296 280.319,161.528C277.132,161.857 273.971,162.4 270.858,163.155C267.968,163.855 264.774,164.962 262.748,167.255C261.048,169.182 260.748,171.355 260.555,173.806C259.955,181.422 259.011,189.015 258.094,196.598C256.737,207.833 255.286,219.057 253.819,230.279C252.148,243.058 250.457,255.834 248.745,268.607C247.115,280.85 245.497,293.093 243.89,305.338C242.637,314.962 241.39,324.589 240.27,334.229C240.07,335.938 239.877,337.648 239.692,339.359C239.7,340.673 240.778,341.751 242.092,341.759C243.397,341.729 244.462,340.664 244.492,339.359L244.486,339.365Z" style="fill:rgb(33,23,21);fill-rule:nonzero;"/>
        <path d="M6.579,266.289C31.554,266.236 140.385,265.976 156.308,265.789C156.308,260.629 156.221,256.777 156.221,252.379L155.355,252.379C143.591,252.386 20.727,252.479 2.428,252.479C2.428,255.519 2.417,260.372 2.4,266.307L6.579,266.298" style="fill:white;fill-rule:nonzero;"/>
        <path d="M7.156,352.325C7.156,343.795 7.296,295.208 7.366,266.288L18.625,266.262C18.556,295.181 18.416,343.794 18.416,352.325L7.156,352.325Z" style="fill:white;fill-rule:nonzero;"/>
        <path d="M6.579,268.689C14.214,268.673 21.848,268.656 29.479,268.637C40.879,268.609 52.276,268.58 63.67,268.549C76.197,268.515 88.724,268.478 101.253,268.438C112.279,268.403 123.306,268.363 134.333,268.317C141.211,268.287 148.09,268.264 154.969,268.199L156.304,268.184C157.613,268.165 158.685,267.093 158.704,265.784C158.704,261.314 158.619,256.844 158.617,252.374C158.599,251.064 157.527,249.992 156.217,249.974C150.064,249.974 143.911,249.978 137.758,249.986L104.037,250.009L64.02,250.036L27.42,250.058C19.596,250.063 11.772,250.066 3.948,250.069L2.428,250.069C1.118,250.087 0.046,251.159 0.028,252.469C0.028,257.078 0.019,261.688 0,266.297C0.018,267.607 1.09,268.679 2.4,268.697L6.579,268.688C9.667,268.682 9.673,263.882 6.579,263.888L2.4,263.9L4.8,266.3C4.813,261.69 4.822,257.081 4.828,252.472L2.428,254.872C9.514,254.872 16.601,254.869 23.688,254.863L59.216,254.841L99.337,254.814L134.337,254.79L154.502,254.776L156.221,254.776L153.821,252.376C153.821,256.846 153.905,261.316 153.908,265.786L156.308,263.386C150.096,263.46 143.883,263.476 137.671,263.504C127.004,263.553 116.339,263.593 105.676,263.626C93.191,263.667 80.705,263.705 68.219,263.738C56.544,263.771 44.87,263.802 33.195,263.83C24.984,263.85 16.774,263.869 8.563,263.887L6.579,263.887C3.491,263.894 3.485,268.694 6.579,268.687L6.579,268.689Z" style="fill:rgb(33,23,21);fill-rule:nonzero;"/>
        <path d="M9.56,352.328C9.56,343.81 9.595,335.293 9.619,326.775C9.655,313.375 9.693,299.975 9.733,286.575C9.752,279.999 9.771,273.423 9.789,266.846C9.797,263.757 4.997,263.753 4.989,266.846C4.955,279.363 4.919,291.88 4.882,304.397C4.846,316.676 4.813,328.954 4.782,341.233C4.773,344.931 4.766,348.629 4.761,352.328C4.761,355.416 9.561,355.421 9.561,352.328L9.56,352.328Z" style="fill:rgb(33,23,21);fill-rule:nonzero;"/>
        <path d="M20.82,352.328C20.82,343.81 20.854,335.293 20.878,326.775C20.914,313.375 20.952,299.975 20.992,286.575C21.011,279.999 21.029,273.423 21.048,266.846C21.056,263.757 16.256,263.753 16.248,266.846C16.214,279.363 16.178,291.88 16.141,304.397C16.106,316.676 16.073,328.954 16.041,341.233C16.032,344.931 16.025,348.629 16.021,352.328C16.021,355.416 20.821,355.421 20.821,352.328L20.82,352.328Z" style="fill:rgb(33,23,21);fill-rule:nonzero;"/>
    </g>
</svg>
