<?xml version="1.0" encoding="UTF-8" standalone="no"?>
<!DOCTYPE svg PUBLIC "-//W3C//DTD SVG 1.1//EN" "http://www.w3.org/Graphics/SVG/1.1/DTD/svg11.dtd">
<svg width="100%" height="100%" viewBox="0 0 800 500" version="1.1" xmlns="http://www.w3.org/2000/svg" xmlns:xlink="http://www.w3.org/1999/xlink" xml:space="preserve" xmlns:serif="http://www.serif.com/" style="fill-rule:evenodd;clip-rule:evenodd;stroke-linejoin:round;stroke-miterlimit:2;">
    <g transform="matrix(0.988014,0,0,0.988014,-787.683,-68.0764)">
        <path d="M904.455,130.469C929.561,121.985 956.689,121.457 982.113,128.963C1002.79,135.147 1021.33,146.998 1035.62,163.17C1049.55,179.158 1058.92,198.596 1062.77,219.446C1064.85,231.276 1065.39,243.325 1064.37,255.293C1063.49,268.409 1060.77,281.338 1056.3,293.699C1052.33,304.636 1046.57,314.835 1039.25,323.875C1038.36,324.954 1037.45,326.014 1036.52,327.056C1035.21,328.228 1034.09,329.59 1033.19,331.096C1032.36,332.976 1033.24,334.953 1033.76,336.8C1034.22,338.436 1034.68,340.074 1035.14,341.712C1036.73,347.472 1038.26,353.251 1039.78,359.031C1039.98,359.826 1040.19,360.621 1040.4,361.417C1034.64,359.287 1028.89,357.123 1023.17,354.885C1019.59,353.487 1016.02,352.064 1012.47,350.616C1011.61,350.2 1010.73,349.839 1009.82,349.537C1008.3,349.264 1006.72,349.593 1005.43,350.455C1003.64,351.328 1001.84,352.161 1000.01,352.926C983.266,359.62 965.387,363.012 947.358,362.914C920.797,363.164 894.043,357.233 872.114,341.919C851.956,327.841 838.164,306.327 831.599,282.576C823.915,254.734 824.354,224.071 834.976,197.063C845.925,169.527 867.016,147.204 893.887,134.71C897.176,133.184 900.541,131.851 903.961,130.65C904.131,130.598 904.296,130.538 904.455,130.469Z" style="fill:white;"/>
    </g>
    <g transform="matrix(1.53059,0,0,1.53059,113.944,0.0233923)">
        <path d="M98.622,218.558C93.977,218.421 89.916,218.309 86.661,218.231C86.621,218.23 86.581,218.23 86.542,218.23C83.805,218.23 81.553,220.482 81.553,223.219C81.553,223.502 81.577,223.785 81.625,224.065C86.207,250.878 91.052,278.888 97.192,314.134C97.578,316.366 99.435,318.071 101.692,318.264C126.002,320.337 207.43,323.782 226.347,324.264C227.856,324.303 229.346,323.911 230.641,323.135C238.866,318.21 271.128,299.745 287.711,288.956C287.711,288.956 286.711,283.018 286.258,281.281C285.358,281.72 284.398,282.158 283.411,282.567C279.67,284.108 275.464,284.09 271.736,282.517C268.478,286.139 264.915,289.475 261.087,292.488C260.375,293.059 258.014,294.795 256.087,293.162C254.822,292.089 255.118,289.635 255.742,288.679C258.742,284.072 260.024,280.656 263.348,276.41C257.837,279.834 252.536,283.842 247.048,287.319C245.262,288.449 243.774,289.431 241.693,289.066C239.767,288.76 238.368,287.028 238.474,285.081C238.582,284.072 238.948,283.108 239.536,282.281C238.012,283.117 236.376,283.731 234.678,284.105C234.414,284.172 234.142,284.205 233.87,284.205C232.06,284.205 230.57,282.716 230.57,280.905C230.57,280.765 230.579,280.624 230.597,280.484C230.626,279.338 231.062,278.239 231.826,277.384L232.712,276.26L231.559,276.503C229.846,276.915 228.046,276.244 227.019,274.813C226.179,273.573 226.709,271.483 227.079,270.733C227.684,269.721 228.435,268.804 229.309,268.013C230.319,267.013 234.699,263.663 235.839,262.833C236.372,262.447 236.906,262.066 237.439,261.691C236.699,257.011 235.539,250.102 234.889,245.673C234.44,242.565 232.775,233.099 230.857,222.048L230.489,222.855C227.989,229.518 222.731,241.946 217.829,249.839C217.829,249.839 216.512,252.195 214.846,255.173C213.149,245.391 211.467,235.739 209.8,226.218C209.392,223.899 207.395,222.169 205.041,222.097C188.722,221.575 130.18,219.487 98.622,218.558Z" style="fill:white;fill-rule:nonzero;"/>
    </g>
    <g transform="matrix(1.53059,0,0,1.53059,113.944,0.0233923)">
        <path d="M355.447,175.452C356.014,177 356.503,178.503 356.894,179.919C364.005,205.697 366.894,223.253 371.116,251.475C371.649,257.034 371.298,262.643 370.074,268.092C368.462,273.892 363.335,278.192 357.72,280.372C352.105,282.552 345.961,282.683 339.969,283.293C332.375,284.066 299.19,284.436 294.153,284.51C294.053,281.786 291.894,265.796 286.9,256.171C283.555,256.263 281.331,257.165 277.36,256.187C271.72,254.807 268.966,252.298 263.286,251.068C258.836,250.108 254.276,251.948 250.206,254.018C245.774,256.273 241.506,258.839 237.436,261.696C236.696,257.016 235.536,250.107 234.886,245.678C234.437,242.571 232.774,233.115 230.858,222.072L230.486,222.86C226.179,234.049 220.946,244.859 214.843,255.178C213.199,245.701 211.418,235.434 209.796,226.218C209.388,223.899 207.391,222.169 205.037,222.097C201.47,221.983 195.885,221.797 189.005,221.556C192.098,209.635 193.968,199.45 196.126,187.608C197.716,178.898 199.286,169.388 202.246,161.048C203.816,156.168 206.702,151.814 210.586,148.468C213.177,146.17 216.117,144.3 219.296,142.928L236.808,136.348C237.008,136.602 237.208,136.848 237.416,137.077C241.701,142.013 248.061,144.929 254.555,145.95C261.76,147.02 269.101,146.732 276.2,145.1C286.833,142.61 295.6,140.356 304.981,135.005C305.129,134.931 307.881,133.405 307.493,133.612C316.84,137.048 327.933,140.961 336.084,147.328C339.474,149.85 342.511,152.816 345.113,156.145C349.456,162.058 352.936,168.559 355.447,175.452Z" style="fill:white;fill-rule:nonzero;"/>
    </g>
    <g transform="matrix(1.53059,0,0,1.53059,113.944,0.0233923)">
        <path d="M245.512,133.2L248.618,131.824C256.061,133.397 263.793,132.926 270.99,130.461C277.555,128.106 283.495,124.28 288.353,119.276C290.217,117.488 291.954,115.572 293.553,113.544L293.58,113.644C294.622,118.008 296.177,122.234 298.21,126.234C299.14,128.114 303.34,131.704 306.591,134.114C305.9,134.5 305.06,134.965 304.98,135.005C295.603,140.356 286.832,142.605 276.199,145.1C269.1,146.733 261.757,147.023 254.551,145.953C248.057,144.932 241.697,142.016 237.412,137.08C237.338,136.999 237.266,136.915 237.194,136.831C240.448,135.428 242.294,134.619 245.512,133.2Z" style="fill:white;fill-rule:nonzero;"/>
    </g>
    <g transform="matrix(1.53059,0,0,1.53059,113.944,0.0233923)">
        <path d="M306.315,131.521C303.061,133.436 299.695,135.153 296.234,136.662C291.671,138.506 286.98,140.014 282.197,141.174C277.166,142.618 272.01,143.587 266.797,144.066C261.646,144.502 256.459,144.083 251.445,142.826C246.374,141.535 241.84,138.668 238.5,134.64C237.566,133.717 236.04,133.717 235.106,134.64C234.205,135.584 234.205,137.09 235.106,138.034C241.875,146.541 253.229,149.079 263.588,148.982C269.386,148.813 275.145,147.974 280.75,146.482C285.852,145.309 290.873,143.806 295.781,141.982C300.252,140.201 304.585,138.089 308.742,135.664C311.427,134.137 309.011,129.988 306.319,131.519L306.315,131.521Z" style="fill:rgb(33,23,21);fill-rule:nonzero;"/>
    </g>
    <g transform="matrix(1.53059,0,0,1.53059,113.944,0.0233923)">
        <path d="M221.306,177.178C222.278,187.719 224.349,198.218 226.122,208.644C228.04,219.918 230.067,231.175 231.953,242.455C233.06,249.072 234.072,255.709 235.122,262.336C235.48,263.599 236.806,264.352 238.074,264.012C239.324,263.636 240.068,262.326 239.751,261.06C238.051,250.307 236.323,239.56 234.458,228.835C232.295,216.394 230.105,203.956 228.12,191.485C227.659,188.585 227.209,185.693 226.797,182.785C226.755,182.485 226.713,182.192 226.672,181.896C226.652,181.754 226.545,180.966 226.586,181.273C226.625,181.562 226.528,180.836 226.51,180.698C226.474,180.417 226.438,180.137 226.403,179.856C226.292,178.963 226.189,178.069 226.103,177.173C226.069,175.87 225.006,174.807 223.703,174.773C222.39,174.783 221.313,175.86 221.303,177.173L221.306,177.178Z" style="fill:rgb(33,23,21);fill-rule:nonzero;"/>
    </g>
    <g transform="matrix(1.53059,0,0,1.53059,113.944,0.0233923)">
        <path d="M192.1,219.116C195.427,205.674 197.6,192.016 200.25,178.44C201.493,172.081 202.785,165.406 205.438,159.458C207.941,153.974 212.134,149.432 217.4,146.5C220.755,144.541 224.694,143.454 228.32,142.091L239.971,137.713C241.219,137.333 241.961,136.027 241.648,134.761C241.289,133.498 239.964,132.746 238.695,133.085L227.976,137.113C224.415,138.451 220.763,139.658 217.276,141.183C214.237,142.655 211.414,144.535 208.884,146.772C206.464,148.799 204.422,151.24 202.856,153.981C199.469,159.781 197.856,166.598 196.45,173.102C194.95,180.047 193.807,187.069 192.507,194.053C191.024,202.024 189.415,209.969 187.467,217.841C186.725,220.841 191.353,222.119 192.096,219.117L192.1,219.116Z" style="fill:rgb(33,23,21);fill-rule:nonzero;"/>
    </g>
    <g transform="matrix(1.53059,0,0,1.53059,113.944,0.0233923)">
        <path d="M219.9,251.055C225.206,242.455 229.253,232.937 232.8,223.498C233.139,222.229 232.386,220.905 231.123,220.546C229.856,220.225 228.544,220.97 228.171,222.222C224.888,231.403 220.729,240.247 215.753,248.632C214.126,251.268 218.277,253.682 219.898,251.055L219.9,251.055Z" style="fill:rgb(33,23,21);fill-rule:nonzero;"/>
    </g>
    <g transform="matrix(1.53059,0,0,1.53059,113.944,0.0233923)">
        <path d="M291.27,114.279C291.755,116.515 292.422,118.708 293.264,120.835C294.082,123.153 295.069,125.409 296.216,127.583C297.203,129.125 298.425,130.504 299.838,131.669C301.599,133.275 303.472,134.759 305.383,136.183C306.521,136.839 307.997,136.452 308.667,135.322C309.3,134.18 308.918,132.723 307.806,132.038C306.223,130.859 304.691,129.605 303.232,128.275C302.56,127.662 301.9,127.031 301.285,126.36C301.145,126.208 301.011,126.053 300.875,125.898C300.763,125.77 300.555,125.489 300.765,125.778C300.588,125.537 300.428,125.283 300.287,125.019C298.267,121.239 296.79,117.193 295.9,113C295.614,111.962 294.662,111.237 293.585,111.237C292.268,111.237 291.185,112.321 291.185,113.638C291.185,113.854 291.214,114.068 291.271,114.276L291.27,114.279Z" style="fill:rgb(33,23,21);fill-rule:nonzero;"/>
    </g>
    <g transform="matrix(1.53059,0,0,1.53059,113.944,0.0233923)">
        <path d="M238.761,138.747C241.25,137.675 243.734,136.591 246.211,135.494C247.831,134.905 249.396,134.177 250.89,133.318C252.491,132.131 253.843,130.641 254.87,128.933C255.525,127.794 255.139,126.32 254.009,125.649C252.867,125.016 251.41,125.398 250.726,126.51C250.354,127.109 249.935,127.677 249.474,128.21C249.208,128.504 248.927,128.784 248.632,129.048C248.332,129.317 248.665,129.048 248.468,129.171C248.303,129.277 248.139,129.384 247.968,129.477C246.513,130.266 244.911,130.852 243.397,131.521C241.049,132.558 238.696,133.585 236.339,134.601C235.205,135.268 234.817,136.747 235.478,137.884C236.168,138.989 237.619,139.369 238.762,138.745L238.761,138.747Z" style="fill:rgb(33,23,21);fill-rule:nonzero;"/>
    </g>
    <g transform="matrix(1.53059,0,0,1.53059,113.944,0.0233923)">
        <path d="M225.421,62.142C230.789,57.452 236.877,52.799 241.667,50.476C242.552,50.047 243.685,50.621 244.039,51.976C244.755,54.726 243.572,58.651 245.668,57.886C249.301,56.56 260.212,49.359 268.668,46.056L277.042,49.239C278.363,49.922 279.617,50.729 280.786,51.648C282.627,53.181 284.273,54.935 285.686,56.87C288.469,60.57 291.998,66.657 296.349,76.499L299.116,74.651C301.877,71.798 306.76,71.651 310.063,73.859C313.322,76.248 315.194,80.103 315.057,84.141C314.873,88.135 313.508,91.986 311.134,95.204C308.089,99.451 303.957,102.802 299.173,104.904C296.353,110.236 292.698,115.084 288.348,119.263C283.49,124.267 277.55,128.093 270.985,130.448C263.435,133.032 255.305,133.423 247.542,131.573C243.361,130.606 239.355,129 235.665,126.81C231.412,124.137 227.697,120.691 224.712,116.651C220.976,111.854 218.066,106.466 216.103,100.711C214.245,95.5 212.964,90.101 212.282,84.611C211.847,81.592 211.628,79.024 211.51,77.127C211.51,77.127 211.496,76.899 211.469,76.515L217.249,69.832C219.482,67.55 222.332,64.84 225.421,62.142Z" style="fill:white;fill-rule:nonzero;"/>
    </g>
    <g transform="matrix(1.53059,0,0,1.53059,113.944,0.0233923)">
        <path d="M314.246,47.687C312.579,37.073 308.613,26.431 301.389,20.856L294.74,15.256C292.373,13.018 283.824,3.816 265.14,2.613C242.991,1.186 226.709,8.68 219.86,16.679L219.497,24.136C210.212,32.983 205.341,48.689 208.735,70.078C208.862,71.44 209.009,72.784 209.175,74.101C209.361,75.59 209.575,77.046 209.803,78.457C209.964,78.267 217.256,69.837 217.256,69.837C223.356,63.577 234.123,54.137 241.669,50.477C242.554,50.048 243.687,50.622 244.041,51.977C244.757,54.727 243.574,58.652 245.67,57.887C249.303,56.561 260.214,49.36 268.67,46.057L277.044,49.24C278.365,49.923 279.619,50.73 280.788,51.649C282.629,53.182 284.275,54.936 285.688,56.871C288.471,60.571 292,66.658 296.351,76.5L299.118,74.652C301.879,71.799 306.762,71.652 310.065,73.86C311.003,74.491 311.829,75.273 312.511,76.175C314.321,71.369 315.282,62.183 315.177,58.005C315.09,54.549 314.779,51.103 314.246,47.687Z" style="fill:rgb(122,116,115);fill-rule:nonzero;"/>
    </g>
    <g transform="matrix(1.53059,0,0,1.53059,113.944,0.0233923)">
        <path d="M300.818,76.352C303.176,74.286 306.707,74.202 309.161,76.152C311.931,78.281 312.948,82.071 312.595,85.419C311.75,93.449 304.906,99.585 298.016,102.819C296.888,103.491 296.501,104.964 297.155,106.103C297.838,107.216 299.297,107.599 300.439,106.964C307.622,103.589 313.745,97.791 316.39,90.18C318.901,82.953 316.74,73.611 308.99,70.668C305.019,69.151 300.512,70.044 297.419,72.96C295.213,75.129 298.607,78.522 300.814,76.354L300.818,76.352Z" style="fill:rgb(33,23,21);fill-rule:nonzero;"/>
    </g>
    <g transform="matrix(1.53059,0,0,1.53059,113.944,0.0233923)">
        <path d="M209.115,77.131C210.297,95.55 216.255,115.447 231.648,126.983C246.182,137.874 267.565,137.6 282.332,127.405C290.236,121.89 296.726,114.585 301.271,106.086C302.728,103.363 298.586,100.936 297.126,103.664C293.38,110.608 288.269,116.723 282.1,121.642C269.189,131.928 251.168,133.184 236.955,124.788C229.464,120.237 223.825,112.561 220.26,104.672C216.36,96.04 214.524,86.547 213.92,77.131C213.89,75.826 212.825,74.761 211.52,74.731C210.208,74.742 209.131,75.819 209.12,77.131L209.115,77.131Z" style="fill:rgb(33,23,21);fill-rule:nonzero;"/>
    </g>
    <g transform="matrix(1.53059,0,0,1.53059,113.944,0.0233923)">
        <path d="M315.235,75.618C317.354,68.206 318.047,60.459 317.276,52.789C316.532,44.598 314.735,36.314 310.911,28.975C309.026,25.186 306.359,21.841 303.086,19.159C302.138,18.268 300.64,18.268 299.692,19.159C298.769,20.094 298.769,21.618 299.692,22.553C305.326,26.971 308.385,33.774 310.258,40.519C312.25,47.468 313.063,54.701 312.663,61.919C312.446,66.125 311.756,70.293 310.606,74.345C309.711,77.308 314.342,78.575 315.235,75.621L315.235,75.618Z" style="fill:rgb(33,23,21);fill-rule:nonzero;"/>
    </g>
    <g transform="matrix(1.53059,0,0,1.53059,113.944,0.0233923)">
        <path d="M206.333,70.077C206.6,72.915 206.955,75.743 207.4,78.56C207.566,79.163 207.961,79.678 208.5,79.994C208.868,80.209 209.286,80.322 209.712,80.322C210.564,80.322 211.354,79.869 211.784,79.133C212.076,78.563 212.161,77.91 212.026,77.284C211.881,76.372 211.747,75.459 211.626,74.545L211.712,75.183C211.485,73.485 211.292,71.783 211.132,70.077C211.115,69.444 210.866,68.839 210.432,68.377C209.982,67.925 209.37,67.671 208.732,67.671C207.415,67.671 206.332,68.754 206.332,70.071L206.332,70.077L206.333,70.077Z" style="fill:rgb(33,23,21);fill-rule:nonzero;"/>
    </g>
    <g transform="matrix(1.53059,0,0,1.53059,113.944,0.0233923)">
        <path d="M217.8,22.438C208.612,31.272 205.329,44.405 205.282,56.789C205.3,61.483 205.691,66.168 206.451,70.8C206.808,72.064 208.134,72.817 209.403,72.476C210.653,72.099 211.397,70.79 211.08,69.524C209.145,57.142 209.457,43.267 216.094,32.233C217.495,29.878 219.211,27.724 221.194,25.833C223.425,23.688 220.028,20.297 217.8,22.439L217.8,22.438Z" style="fill:rgb(33,23,21);fill-rule:nonzero;"/>
    </g>
    <g transform="matrix(1.53059,0,0,1.53059,113.944,0.0233923)">
        <path d="M297.918,13.558C295.777,11.458 293.457,9.549 290.984,7.851C286.306,4.804 281.109,2.64 275.65,1.469C268.132,-0.093 260.41,-0.425 252.785,0.487C246.074,1.163 239.504,2.854 233.3,5.5C228.105,7.612 223.441,10.85 219.647,14.98C217.635,17.306 221.016,20.716 223.041,18.375C226.016,15.066 229.646,12.41 233.7,10.575C239.109,8.022 244.881,6.321 250.81,5.532C262.968,3.756 276.517,4.632 287.224,11.139C288.191,11.727 289.131,12.355 290.045,13.024C290.245,13.169 290.441,13.315 290.632,13.464C290.852,13.631 290.571,13.417 290.545,13.397C290.645,13.477 290.745,13.557 290.851,13.639C291.181,13.908 291.511,14.176 291.834,14.453C292.765,15.253 293.64,16.105 294.529,16.953C296.769,19.079 300.169,15.691 297.923,13.559L297.918,13.558Z" style="fill:rgb(33,23,21);fill-rule:nonzero;"/>
    </g>
    <g transform="matrix(1.53059,0,0,1.53059,113.944,0.0233923)">
        <path d="M218.951,71.533C222.263,68.145 225.763,64.933 229.394,61.89C233.032,58.727 236.956,55.91 241.115,53.474C241.541,53.284 241.952,53.063 242.346,52.813C242.792,52.462 242.577,52.838 242.297,52.704C242.303,52.704 241.478,52.738 241.702,52.529C241.732,52.833 241.785,53.134 241.862,53.429C241.922,54.024 241.91,54.629 241.916,55.224C241.938,57.318 242.18,59.981 244.765,60.339C246.376,60.563 248.065,59.485 249.443,58.761C251.264,57.806 253.043,56.779 254.843,55.768C259.491,52.975 264.326,50.506 269.314,48.378C270.559,47.995 271.3,46.691 270.99,45.425C270.631,44.161 269.306,43.409 268.037,43.749C263.315,45.707 258.73,47.981 254.314,50.556C252.362,51.65 250.423,52.766 248.462,53.842C247.704,54.258 246.944,54.669 246.171,55.054C245.89,55.194 245.606,55.325 245.323,55.461C245.184,55.528 244.772,55.661 245.323,55.467C245.149,55.513 244.979,55.573 244.814,55.645L246.684,56.433C246.79,56.71 246.817,56.757 246.767,56.573C246.852,56.451 246.774,56.891 246.746,56.391C246.718,55.891 246.723,55.402 246.717,54.907C246.749,53.709 246.628,52.512 246.356,51.345C246.02,50.009 245.102,48.891 243.856,48.302C242.565,47.779 241.097,47.917 239.925,48.671C235.619,51.017 231.568,53.804 227.837,56.987C223.531,60.464 219.431,64.188 215.558,68.142C213.397,70.352 216.788,73.749 218.952,71.536L218.951,71.533Z" style="fill:rgb(33,23,21);fill-rule:nonzero;"/>
    </g>
    <g transform="matrix(1.53059,0,0,1.53059,113.944,0.0233923)">
        <path d="M275.834,51.315C280.109,53.559 283.193,57.158 285.81,61.27C289.039,66.533 291.871,72.03 294.282,77.714C294.953,78.844 296.427,79.23 297.566,78.575C298.677,77.89 299.059,76.433 298.427,75.291C295.955,69.439 293.026,63.791 289.666,58.4C286.705,53.836 283.13,49.73 278.256,47.173C275.523,45.739 273.094,49.88 275.834,51.317L275.834,51.315Z" style="fill:rgb(33,23,21);fill-rule:nonzero;"/>
    </g>
    <g transform="matrix(1.53059,0,0,1.53059,113.944,0.0233923)">
        <path d="M286.5,286.883C272.049,296.276 257.079,304.883 242.2,313.576C239.321,315.257 236.443,316.938 233.564,318.621C231.23,319.989 228.856,321.911 226.054,321.855C221.496,321.765 216.938,321.569 212.383,321.401C197.721,320.859 183.062,320.248 168.406,319.568C152.82,318.86 137.235,318.112 121.659,317.208C115.912,316.874 110.165,316.526 104.425,316.085C103.389,316.093 102.356,315.985 101.344,315.765C99.102,315.047 99.244,311.973 98.914,310.076C97.853,303.987 96.793,297.897 95.736,291.807C92.038,270.519 88.363,249.226 84.712,227.929C84.52,226.802 84.328,225.675 84.135,224.55C83.864,223.694 83.921,222.767 84.293,221.95C85.083,220.55 86.485,220.63 87.893,220.665C90.574,220.732 93.255,220.804 95.937,220.883C102.955,221.083 109.973,221.299 116.99,221.531C133.51,222.064 150.029,222.618 166.548,223.192C178.98,223.618 191.412,224.041 203.843,224.462C205.143,224.504 206.418,224.53 207.143,225.817C207.571,226.888 207.823,228.021 207.891,229.173C208.163,230.721 208.434,232.269 208.705,233.818C209.787,240.006 210.864,246.195 211.935,252.385C214.119,264.97 216.314,277.553 218.521,290.134C219.616,296.328 220.723,302.519 221.842,308.708C222.202,309.97 223.526,310.722 224.794,310.384C226.046,310.011 226.791,308.699 226.47,307.432C221.815,281.718 217.436,255.956 212.927,230.217C212.437,227.423 212.327,224.291 210.327,222.089C208.773,220.493 206.62,219.619 204.393,219.68C202.197,219.609 200.001,219.537 197.806,219.462C191.4,219.246 184.994,219.027 178.588,218.805C161.804,218.229 145.02,217.66 128.235,217.098C114.443,216.643 100.635,216.016 86.835,215.839C84.275,215.77 81.848,217.01 80.403,219.125C78.809,221.47 79.185,223.955 79.634,226.58C80.51,231.703 81.388,236.826 82.268,241.948C84.121,252.732 85.981,263.515 87.848,274.297C89.932,286.328 92.022,298.358 94.117,310.387C94.607,313.205 94.732,316.264 96.817,318.441C98.399,320.095 100.427,320.566 102.617,320.741C105.061,320.941 107.508,321.116 109.956,321.281C124.596,322.268 139.256,322.988 153.912,323.691C169.999,324.464 186.09,325.17 202.183,325.809C208.124,326.045 214.066,326.266 220.01,326.471C222.025,326.538 224.042,326.615 226.059,326.655C229.673,326.727 232.4,324.874 235.368,323.132C249.968,314.566 264.633,306.118 279.05,297.249C282.365,295.21 285.665,293.149 288.928,291.027C291.508,289.35 289.105,285.192 286.505,286.883L286.5,286.883Z" style="fill:rgb(33,23,21);fill-rule:nonzero;"/>
    </g>
    <g transform="matrix(1.53059,0,0,1.53059,113.944,0.0233923)">
        <path d="M109.131,309.668C135.398,311.229 161.664,312.804 187.949,314.003C195.775,314.36 203.602,314.684 211.43,314.973C214.519,315.087 214.515,310.287 211.43,310.173C184.62,309.183 157.83,307.739 131.049,306.167C123.743,305.738 116.437,305.305 109.131,304.867C106.046,304.684 106.056,309.484 109.131,309.667L109.131,309.668Z" style="fill:rgb(33,23,21);fill-rule:nonzero;"/>
    </g>
    <g transform="matrix(1.53059,0,0,1.53059,113.944,0.0233923)">
        <path d="M314.065,196.688C318.349,212.858 322.249,229.125 325.765,245.488C326.413,248.507 331.041,247.229 330.393,244.212C326.882,227.857 322.982,211.591 318.693,195.412C317.903,192.429 313.271,193.694 314.065,196.688Z" style="fill:rgb(33,23,21);fill-rule:nonzero;"/>
    </g>
    <g transform="matrix(1.53059,0,0,1.53059,113.944,0.0233923)">
        <path d="M293.931,248.244C306.874,249.402 320.031,247.995 332.968,247.281C336.04,247.111 336.059,242.31 332.968,242.481C320.035,243.195 306.874,244.602 293.931,243.444C292.618,243.454 291.541,244.531 291.531,245.844C291.557,247.15 292.625,248.218 293.931,248.244Z" style="fill:rgb(33,23,21);fill-rule:nonzero;"/>
    </g>
    <g transform="matrix(1.84111,0,0,1.84111,19.9996,-11.6326)">
        <path d="M45.094,34.5C30.272,39.672 17.726,49.885 9.653,63.348C1.551,76.957 -1.169,92.8 0.444,108.45C1.853,122.115 6.462,135.37 15.279,146.044C23.622,156.144 35.359,162.921 47.99,166.113C55.305,167.909 62.824,168.733 70.354,168.564C79.706,168.529 88.98,166.854 97.754,163.615C99.794,162.83 101.794,161.952 103.754,160.981L101.904,161.222C108.695,164 115.551,166.599 122.444,169.112C124.219,169.759 125.834,167.812 125.396,166.16C123.703,159.76 122.053,153.348 120.226,146.984L119.608,149.319C128.256,140.237 133.608,128.58 135.923,116.319C138.241,104.037 138.205,91.1 134.67,79.052C131.59,68.518 126.001,58.887 118.384,50.986C110.583,42.991 100.902,37.077 90.228,33.786C77.245,29.834 63.421,29.535 50.279,32.921C48.528,33.375 46.799,33.903 45.089,34.493C42.189,35.493 43.434,40.132 46.365,39.121C59.913,34.48 74.575,34.166 88.31,38.221C99.406,41.539 109.355,47.899 117.024,56.578C124.497,65.158 129.529,75.589 131.593,86.778C132.71,93.126 132.999,99.593 132.452,106.015C131.98,113.054 130.523,119.991 128.122,126.625C125.993,132.494 122.899,137.968 118.969,142.819C118.493,143.398 118.005,143.967 117.505,144.526C116.804,145.155 116.201,145.886 115.718,146.694C115.274,147.703 115.744,148.764 116.025,149.755C116.275,150.633 116.522,151.512 116.765,152.391C117.621,155.482 118.438,158.583 119.254,161.685C119.757,163.601 120.261,165.517 120.768,167.432L123.72,164.48C119.245,162.848 114.777,161.195 110.34,159.46C108.421,158.71 106.507,157.946 104.6,157.169C104.14,156.946 103.665,156.752 103.18,156.59C102.36,156.444 101.515,156.62 100.822,157.083C99.864,157.551 98.895,157.998 97.912,158.409C88.928,162.001 79.334,163.821 69.659,163.769C55.405,163.903 41.048,160.72 29.28,152.502C18.462,144.947 11.061,133.402 7.538,120.656C3.414,105.715 3.65,89.26 9.35,74.766C15.226,59.989 26.544,48.01 40.964,41.305C42.729,40.486 44.535,39.771 46.37,39.126C47.62,38.749 48.364,37.44 48.047,36.174C47.686,34.912 46.362,34.162 45.094,34.5Z" style="fill:rgb(33,23,21);fill-rule:nonzero;"/>
    </g>
    <g transform="matrix(1.53059,0,0,1.53059,113.944,0.0233923)">
        <path d="M230.6,280.829C230.594,280.712 230.594,280.598 230.6,280.487C230.629,279.341 231.065,278.242 231.829,277.387L232.715,276.263L231.562,276.506C229.849,276.918 228.049,276.247 227.022,274.816C226.182,273.576 226.712,271.486 227.082,270.736C227.687,269.724 228.438,268.807 229.312,268.016C230.322,267.016 234.702,263.666 235.842,262.836C240.39,259.518 245.195,256.569 250.212,254.016C254.282,251.946 258.842,250.106 263.292,251.066C268.972,252.296 271.726,254.805 277.366,256.185C281.338,257.163 283.561,256.261 286.906,256.173C290.184,262.489 292.242,271.549 293.296,277.799L292.603,278.006C291.177,278.606 287.569,280.842 283.415,282.564C279.674,284.105 275.468,284.087 271.74,282.514C268.482,286.136 264.919,289.472 261.091,292.485C260.379,293.056 258.018,294.792 256.091,293.159C254.826,292.086 255.122,289.632 255.746,288.676C258.746,284.069 260.028,280.653 263.352,276.407C257.841,279.831 252.54,283.839 247.052,287.316C245.266,288.446 243.778,289.428 241.697,289.063C239.771,288.757 238.372,287.025 238.478,285.078C238.588,284.069 238.955,283.105 239.544,282.278C238.508,282.76 237.892,283.045 237.892,283.045C236.883,283.564 235.801,283.922 234.682,284.109C233.522,284.283 232.343,283.935 231.463,283.16C230.928,282.499 230.625,281.679 230.6,280.829Z" style="fill:white;fill-rule:nonzero;"/>
    </g>
    <g transform="matrix(1.53059,0,0,1.53059,113.944,0.0233923)">
        <path d="M230.918,274.194C230.404,274.268 229.88,274.171 229.426,273.92C228.759,273.465 228.943,272.711 229.146,272.02C229.293,271.52 229.204,271.83 229.146,271.949C229.25,271.732 229.372,271.524 229.512,271.328C229.822,270.919 230.164,270.536 230.535,270.181C231.028,269.68 231.547,269.206 232.091,268.761C235.11,266.262 238.268,263.936 241.552,261.797C246.082,258.839 251.001,255.719 256.176,254.038C258.669,253.143 261.377,253.023 263.939,253.696C266.175,254.376 268.354,255.228 270.458,256.245C273.1,257.519 275.913,258.406 278.808,258.878C281.514,259.232 284.119,258.684 286.817,258.578C289.895,258.455 289.911,253.655 286.817,253.778C284.26,253.878 281.684,254.514 279.126,254.11C276.378,253.545 273.717,252.617 271.214,251.35C268.633,250.067 265.89,249.143 263.059,248.603C259.863,248.201 256.616,248.634 253.637,249.86C247.553,252.35 241.792,255.567 236.481,259.441C233.145,261.593 230.018,264.053 227.141,266.788C225.065,268.923 223.452,271.805 224.418,274.88C225.452,278.172 229.083,279.38 232.191,278.823C233.454,278.464 234.206,277.14 233.868,275.871C233.494,274.619 232.182,273.874 230.915,274.195L230.918,274.194Z" style="fill:rgb(33,23,21);fill-rule:nonzero;"/>
    </g>
    <g transform="matrix(1.53059,0,0,1.53059,113.944,0.0233923)">
        <path d="M247.988,261.909C243.555,264.636 239.302,267.646 235.257,270.92C231.757,273.699 226.934,277.403 228.47,282.548C229.031,284.53 230.681,286.024 232.708,286.386C234.991,286.813 237.047,286.056 239.096,285.117C240.225,284.446 240.611,282.972 239.957,281.833C239.273,280.721 237.816,280.339 236.674,280.972C236.096,281.247 235.493,281.467 234.874,281.631C234.499,281.752 234.099,281.777 233.712,281.703C233.606,281.678 233.103,281.474 233.267,281.557C233.402,281.625 233.18,281.457 233.138,281.374C232.979,281.001 232.936,280.589 233.015,280.192C232.986,280.411 233.107,279.854 233.136,279.774C233.079,279.936 233.349,279.374 233.436,279.248C233.569,279.04 233.848,278.441 234.088,278.313C233.946,278.389 233.688,278.771 233.988,278.459C234.088,278.349 234.188,278.234 234.293,278.124C234.523,277.88 234.763,277.646 235.006,277.415C238.05,274.64 241.3,272.099 244.728,269.815C246.587,268.508 248.47,267.229 250.418,266.058C253.063,264.469 250.652,260.317 247.995,261.913L247.988,261.909Z" style="fill:rgb(33,23,21);fill-rule:nonzero;"/>
    </g>
    <g transform="matrix(1.53059,0,0,1.53059,113.944,0.0233923)">
        <path d="M255.834,266.87C252.209,269.151 248.719,271.63 245.234,274.111C242.054,276.372 238.598,278.483 236.872,282.154C235.233,285.64 236.472,289.793 240.272,291.16C244.351,292.628 248.121,289.532 251.304,287.404C255.475,284.613 259.541,281.667 263.778,278.974C266.378,277.321 263.972,273.165 261.355,274.829C257.375,277.359 253.545,280.112 249.638,282.75C247.803,284.161 245.842,285.399 243.78,286.45C242.863,286.841 241.522,286.897 241.046,286.007C240.511,285.007 241.259,283.892 242.04,282.849C243.442,281.246 245.086,279.873 246.913,278.779C250.653,276.125 254.377,273.453 258.26,271.011C260.868,269.369 258.46,265.211 255.837,266.866L255.834,266.87Z" style="fill:rgb(33,23,21);fill-rule:nonzero;"/>
    </g>
    <g transform="matrix(1.53059,0,0,1.53059,113.944,0.0233923)">
        <path d="M260.566,276.14C258.894,278.55 257.362,281.054 255.978,283.64C254.612,286.047 252.594,288.332 252.827,291.271C252.887,292.925 253.728,294.457 255.092,295.396C256.49,296.281 258.22,296.476 259.78,295.925C260.97,295.479 262.07,294.821 263.025,293.983C264.266,292.983 265.486,291.956 266.683,290.903C269.231,288.655 271.635,286.251 273.883,283.703C274.784,282.759 274.784,281.253 273.883,280.309C272.946,279.39 271.425,279.39 270.488,280.309C268.776,282.25 266.976,284.107 265.088,285.88C264.107,286.797 263.105,287.691 262.081,288.562C261.588,288.983 261.09,289.4 260.589,289.812C260.313,290.04 260.035,290.267 259.756,290.492C259.644,290.601 259.522,290.699 259.392,290.786C259.543,290.709 259.867,290.448 259.521,290.686C259.196,290.907 258.86,291.111 258.514,291.298C258.157,291.489 258.714,291.292 258.304,291.369C258.162,291.395 258.025,291.448 257.882,291.469C258.217,291.413 257.968,291.512 257.863,291.44C257.886,291.456 258.391,291.633 257.83,291.433C257.818,291.433 257.491,291.284 257.672,291.379C257.946,291.523 257.52,291.099 257.787,291.525C257.639,291.289 257.655,291.073 257.7,291.41C257.669,291.317 257.643,291.221 257.624,291.125C257.588,290.949 257.59,290.998 257.631,291.273L257.617,291.073C257.617,290.873 257.617,290.673 257.624,290.473C257.632,290.02 257.638,290.442 257.614,290.535C257.637,290.446 257.647,290.353 257.674,290.265C257.701,290.177 257.728,290.092 257.746,290.008C257.831,289.608 257.733,290.047 257.681,290.13C257.844,289.869 258.001,289.605 258.166,289.345C258.875,288.231 259.544,287.092 260.194,285.945C261.557,283.398 263.066,280.932 264.715,278.56C265.369,277.421 264.983,275.947 263.854,275.276C262.712,274.642 261.254,275.024 260.57,276.137L260.566,276.14Z" style="fill:rgb(33,23,21);fill-rule:nonzero;"/>
    </g>
    <g transform="matrix(1.53059,0,0,1.53059,113.944,0.0233923)">
        <path d="M272.512,285.353C276.691,286.555 281.165,286.227 285.123,284.427C288.103,283.144 290.841,281.368 293.809,280.08C294.938,279.41 295.325,277.935 294.67,276.797C293.984,275.687 292.528,275.305 291.386,275.936C288.75,277.079 286.306,278.657 283.686,279.847C280.611,281.361 277.079,281.674 273.786,280.724C270.82,279.841 269.552,284.472 272.51,285.353L272.512,285.353Z" style="fill:rgb(33,23,21);fill-rule:nonzero;"/>
    </g>
    <g transform="matrix(1.53059,0,0,1.53059,113.944,0.0233923)">
        <path d="M282.525,253.722C286.355,258.684 288.091,265.145 289.509,271.159C290.187,274.033 290.754,276.931 291.209,279.853C291.299,280.436 291.384,281.019 291.465,281.603C291.38,280.986 291.492,281.812 291.506,281.925C291.534,282.153 291.562,282.381 291.588,282.61C291.66,283.241 291.73,283.875 291.756,284.51C291.776,285.819 292.847,286.89 294.156,286.91C305.011,286.752 315.867,286.622 326.719,286.31C331.826,286.164 336.911,285.954 341.999,285.501C347.129,285.044 352.39,284.741 357.299,283.069C361.546,281.708 365.362,279.257 368.367,275.962C370.992,272.889 372.642,269.101 373.105,265.086C373.747,261.03 373.936,256.914 373.667,252.816C373.259,247.877 372.245,242.927 371.483,238.031C370.755,233.354 369.993,228.682 369.198,224.016C367.685,215.25 365.967,206.516 363.951,197.856C361.823,188.714 359.797,179.344 356.11,170.684C352.423,162.024 347.441,153.705 340.195,147.55C332.763,141.239 323.983,137.25 314.938,133.821C312.805,133.012 310.661,132.231 308.518,131.448C307.25,131.11 305.926,131.862 305.566,133.124C305.244,134.391 305.989,135.703 307.242,136.076C315.712,139.176 324.342,142.243 331.908,147.264C335.801,149.827 339.309,152.932 342.325,156.486C345.048,159.855 347.385,163.519 349.294,167.408C353.489,175.574 355.694,184.319 357.894,193.184C359.985,201.623 361.819,210.12 363.394,218.674C365.072,227.749 366.503,236.868 367.887,245.991C368.223,248.209 368.698,250.832 368.86,252.673C369.003,254.503 369.031,256.34 368.943,258.173C368.812,261.667 368.643,265.561 367.302,268.843C363.939,277.087 354.244,279.543 346.293,280.317C340.793,280.855 335.325,281.232 329.807,281.417C318.502,281.791 307.19,281.938 295.881,282.088L294.159,282.111L296.559,284.511C296.32,281.028 295.818,277.568 295.059,274.16C294.112,268.904 292.654,263.753 290.706,258.78C289.703,256.117 288.345,253.601 286.671,251.3C285.978,250.198 284.531,249.819 283.387,250.439C282.257,251.109 281.87,252.585 282.526,253.723L282.525,253.722Z" style="fill:rgb(33,23,21);fill-rule:nonzero;"/>
    </g>
    <g transform="matrix(1.53059,0,0,1.53059,113.944,0.0233923)">
        <path d="M247.434,93.348C247.107,94.223 246.831,95.115 246.605,96.021C246.223,97.471 245.73,99.301 246.932,100.513C247.212,100.785 247.536,101.007 247.89,101.171C248.217,101.342 248.565,101.468 248.925,101.546C249.266,101.616 249.614,101.649 249.962,101.646C250.109,101.639 250.256,101.621 250.404,101.618C251.039,101.61 251.647,101.359 252.104,100.918C252.556,100.468 252.81,99.856 252.81,99.218C252.81,97.901 251.727,96.818 250.41,96.818L250.404,96.818C250.124,96.842 249.843,96.847 249.563,96.832L250.201,96.917C250.042,96.892 249.887,96.847 249.739,96.784L250.312,97.026C250.152,96.95 249.999,96.86 249.855,96.756L250.34,97.132C250.333,97.126 250.327,97.12 250.321,97.113L250.697,97.599C250.687,97.587 250.68,97.574 250.674,97.56L250.915,98.134C250.901,98.096 250.892,98.057 250.887,98.017L250.973,98.655C250.961,98.492 250.969,98.329 250.994,98.168L250.909,98.806C251.035,98.018 251.219,97.24 251.461,96.479C251.643,95.857 251.827,95.229 252.061,94.624C252.231,94 252.144,93.334 251.819,92.775C251.389,92.039 250.599,91.586 249.747,91.586C249.321,91.586 248.903,91.699 248.535,91.914L248.05,92.289C247.756,92.582 247.543,92.947 247.433,93.348L247.434,93.348Z" style="fill:rgb(33,23,21);fill-rule:nonzero;"/>
    </g>
    <g transform="matrix(1.53059,0,0,1.53059,113.944,0.0233923)">
        <path d="M228.311,82.945C227.666,85.183 228.126,90.314 232.182,90.716C237.54,90.636 237.788,84.426 235.967,81.523C234.476,79.146 230.128,78.189 228.311,82.945Z" style="fill:rgb(33,23,21);fill-rule:nonzero;"/>
    </g>
    <g transform="matrix(1.53059,0,0,1.53059,113.944,0.0233923)">
        <path d="M274.28,81.847C275.014,84.174 274.586,89.54 270.172,90.028C264.334,90.036 263.972,83.554 265.919,80.491C267.51,77.983 272.233,76.911 274.28,81.847Z" style="fill:rgb(33,23,21);fill-rule:nonzero;"/>
    </g>
    <g transform="matrix(1.53059,0,0,1.53059,113.944,0.0233923)">
        <path d="M245.621,115.467C248.104,116.166 250.706,116.336 253.259,115.967C256.1,115.677 258.854,114.82 261.359,113.449C262.095,113.019 262.548,112.229 262.548,111.376C262.548,110.06 261.464,108.976 260.148,108.976C259.722,108.976 259.304,109.089 258.936,109.304C258.686,109.449 258.436,109.587 258.175,109.717C258.058,109.775 257.94,109.832 257.821,109.888C257.775,109.909 257.388,110.088 257.653,109.969C257.953,109.834 257.381,110.077 257.381,110.077C257.254,110.126 257.127,110.177 256.999,110.219C256.74,110.312 256.479,110.399 256.216,110.481C255.649,110.657 255.073,110.806 254.492,110.932C254.182,110.999 253.871,111.059 253.558,111.113C253.419,111.137 253.28,111.158 253.141,111.18C252.673,111.255 253.341,111.167 253.047,111.192C251.893,111.314 250.732,111.355 249.572,111.313C249.314,111.299 249.056,111.279 248.799,111.254C248.506,111.224 248.464,111.212 248.782,111.26C248.661,111.241 248.539,111.223 248.418,111.203C247.903,111.114 247.394,110.993 246.894,110.838C245.626,110.5 244.302,111.252 243.942,112.514C243.62,113.781 244.365,115.094 245.618,115.467L245.621,115.467Z" style="fill:rgb(33,23,21);fill-rule:nonzero;"/>
    </g>
    <g transform="matrix(1,0,0,1,0,-5.49573)">
        <g id="b5dcbba4-f290-467d-a612-e64d8f6895fb" transform="matrix(1,0,0,1,11.4841,-83.4218)">
            <circle cx="135.108" cy="261.234" r="84.446" style="fill:rgb(108,99,255);"/>
        </g>
        <g transform="matrix(1,0,0,1,-0.487403,-8.74797)">
            <g transform="matrix(1,0,0,1,-205.716,-199.55)">
                <path d="M377.332,383.132L356.332,404.762C355.409,405.692 354.142,406.203 352.832,406.172L352.762,406.172C351.449,406.201 350.18,405.691 349.252,404.762L328.262,383.132C328.192,383.052 328.112,382.982 328.042,382.912C326.31,381.053 326.409,378.1 328.262,376.362C330.241,374.503 333.364,374.503 335.342,376.362L347.782,389.362L347.782,355.842C347.902,353.176 350.128,351.047 352.797,351.047C355.466,351.047 357.692,353.176 357.812,355.842L357.812,389.362L370.242,376.362C372.224,374.503 375.35,374.503 377.332,376.362C377.402,376.432 377.472,376.502 377.552,376.582C379.28,378.443 379.181,381.392 377.332,383.132Z" style="fill:white;fill-rule:nonzero;"/>
            </g>
            <g transform="matrix(0.814504,0,0,1.04707,27.0149,1.02807)">
                <path d="M184.241,205.903C184.241,203.267 181.49,201.128 178.102,201.128L116.715,201.128C113.327,201.128 110.576,203.267 110.576,205.903C110.576,208.538 113.327,210.678 116.715,210.678L178.102,210.678C181.49,210.678 184.241,208.538 184.241,205.903Z" style="fill:white;"/>
            </g>
        </g>
    </g>
</svg>
